<svg width="50" height="50" viewBox="0 0 50 50" fill="none" xmlns="http://www.w3.org/2000/svg">
<rect width="50" height="50" rx="25" fill="#BBDEF0"/>
<path d="M19.96 26.02C21.24 25.14 22.46 23.96 23.62 22.48C24.78 21 25.5867 19.46 26.04 17.86C26.0933 17.6867 26.2 17.5533 26.36 17.46C26.52 17.3533 26.7 17.3 26.9 17.3C27.0733 17.3 27.22 17.3267 27.34 17.38C27.6733 17.5267 27.84 17.7267 27.84 17.98C27.84 18.02 27.8267 18.06 27.8 18.1C27.7733 18.14 27.7333 18.16 27.68 18.16C27.5867 18.16 27.54 18.2267 27.54 18.36C27.54 18.4 27.5533 18.46 27.58 18.54C28.1667 19.86 29.1267 21.1667 30.46 22.46C31.7933 23.7533 33.1067 24.7467 34.4 25.44C34.6133 25.56 34.72 25.66 34.72 25.74C34.72 25.8067 34.68 25.86 34.6 25.9C34.52 25.9267 34.42 25.9267 34.3 25.9L34.12 25.88C33.92 25.88 33.74 25.92 33.58 26C33.4333 26.0667 33.3533 26.1667 33.34 26.3C33.3133 26.4333 33.26 26.5 33.18 26.5C33.1133 26.5 33.0333 26.4733 32.94 26.42C32.42 26.1267 31.7867 25.6067 31.04 24.86C30.2933 24.1133 29.5667 23.2467 28.86 22.26C28.1667 21.2733 27.62 20.2867 27.22 19.3C27.18 19.1933 27.1 19.14 26.98 19.14C26.8467 19.14 26.74 19.2133 26.66 19.36C26.0333 20.6 25.1 21.9 23.86 23.26C22.6333 24.62 21.46 25.6467 20.34 26.34C20.1933 26.4333 20.0533 26.48 19.92 26.48C19.7867 26.48 19.72 26.4333 19.72 26.34C19.72 26.2333 19.8 26.1267 19.96 26.02ZM16.4 19.2C16.28 19.12 16.22 19.0267 16.22 18.92C16.22 18.8667 16.24 18.8267 16.28 18.8C16.3333 18.76 16.4067 18.74 16.5 18.74C16.7533 18.74 17.0867 18.8267 17.5 19C17.9267 19.1733 18.32 19.4067 18.68 19.7C19.0533 19.98 19.3067 20.2733 19.44 20.58C19.4933 20.7 19.52 20.82 19.52 20.94C19.52 21.14 19.4533 21.3 19.32 21.42C19.2 21.54 19.0533 21.6 18.88 21.6C18.6133 21.6 18.4 21.4733 18.24 21.22C17.96 20.7667 17.68 20.3933 17.4 20.1C17.12 19.8067 16.7867 19.5067 16.4 19.2ZM15.28 30.42C15.28 30.3267 15.3267 30.2533 15.42 30.2C15.5133 30.1467 15.66 30.1267 15.86 30.14C16.3133 30.1533 16.6467 30.1067 16.86 30C17.0867 29.8933 17.24 29.7533 17.32 29.58C17.4 29.4067 17.5133 29.0867 17.66 28.62C18.1133 27.14 18.5933 25.7667 19.1 24.5C19.62 23.22 20.02 22.66 20.3 22.82C20.3933 22.8733 20.44 22.96 20.44 23.08C20.44 23.1733 20.4133 23.2867 20.36 23.42C20.3067 23.54 20.24 23.68 20.16 23.84C19.8533 24.44 19.5533 25.16 19.26 26C18.9667 26.8267 18.68 27.98 18.4 29.46C18.2933 30.02 18.24 30.6867 18.24 31.46C18.24 31.8467 18.2933 32.28 18.4 32.76C18.4667 33.0667 18.5 33.32 18.5 33.52C18.5 33.88 18.4467 34.1533 18.34 34.34C18.2467 34.5267 18.08 34.62 17.84 34.62C17.5467 34.62 17.36 34.44 17.28 34.08C17.2 33.72 17.16 33.2333 17.16 32.62C17.16 32.1533 17.1333 31.8 17.08 31.56C17.0267 31.3067 16.9 31.1133 16.7 30.98C16.5 30.8333 16.1867 30.76 15.76 30.76C15.6133 30.76 15.4933 30.7267 15.4 30.66C15.32 30.58 15.28 30.5 15.28 30.42ZM26 24.96C25.4667 24.96 24.82 24.9867 24.06 25.04L23.58 25.08C23.4467 25.0933 23.34 25.06 23.26 24.98C23.1933 24.8867 23.16 24.7867 23.16 24.68C23.16 24.56 23.1933 24.46 23.26 24.38C23.34 24.3 23.4467 24.2667 23.58 24.28L24.06 24.32C24.9 24.3733 25.5467 24.4 26 24.4H26.52C26.7867 24.4 27.0067 24.3467 27.18 24.24C27.3667 24.12 27.56 23.96 27.76 23.76C28.0533 23.4667 28.3533 23.32 28.66 23.32C28.8333 23.32 29.0067 23.3733 29.18 23.48C29.38 23.6133 29.5667 23.7733 29.74 23.96C29.8867 24.1333 29.96 24.3 29.96 24.46C29.96 24.6067 29.9 24.7267 29.78 24.82C29.66 24.9133 29.4867 24.96 29.26 24.96L26.52 24.98L26 24.96ZM22.24 27.74C22.1067 27.7533 22 27.72 21.92 27.64C21.8533 27.5467 21.82 27.4467 21.82 27.34C21.82 27.22 21.8533 27.12 21.92 27.04C22 26.96 22.1067 26.9267 22.24 26.94L22.72 26.98C23.56 27.0333 24.2067 27.06 24.66 27.06H28.82C28.94 27.06 29.0533 27.0333 29.16 26.98C29.28 26.9133 29.3867 26.84 29.48 26.76C29.7067 26.5867 29.8867 26.5 30.02 26.5C30.1667 26.5 30.3533 26.5667 30.58 26.7C30.82 26.8333 31.0267 26.9867 31.2 27.16C31.3733 27.3333 31.46 27.4733 31.46 27.58C31.46 27.6733 31.44 27.7467 31.4 27.8C31.36 27.84 31.3 27.8933 31.22 27.96C31.1133 28.04 31.0267 28.1267 30.96 28.22C30.9067 28.3133 30.88 28.4533 30.88 28.64C30.8933 28.8667 30.9 29.2267 30.9 29.72C30.9 30.48 30.8733 31.1667 30.82 31.78C30.7667 32.38 30.6867 32.78 30.58 32.98C30.46 33.2067 30.3 33.38 30.1 33.5C29.9133 33.62 29.7267 33.68 29.54 33.68C29.38 33.68 29.24 33.64 29.12 33.56C29 33.48 28.9267 33.3867 28.9 33.28C28.8733 33.1733 28.8467 33.0933 28.82 33.04C28.7267 32.7867 28.56 32.6067 28.32 32.5C28.08 32.3933 27.7667 32.3067 27.38 32.24C27.26 32.2267 27.1667 32.1933 27.1 32.14C27.0333 32.0733 27 32 27 31.92C27 31.84 27.04 31.78 27.12 31.74C27.2 31.7 27.3 31.6867 27.42 31.7L27.96 31.78C28.5467 31.9133 28.9533 31.96 29.18 31.92C29.3533 31.8933 29.4667 31.6867 29.52 31.3C29.5867 30.9 29.62 30.3533 29.62 29.66C29.62 29.0733 29.6133 28.6267 29.6 28.32C29.6 28.0933 29.54 27.92 29.42 27.8C29.3 27.68 29.1267 27.62 28.9 27.62H27.26C27.0467 27.62 26.8733 27.68 26.74 27.8C26.62 27.92 26.56 28.0933 26.56 28.32V34.66C26.56 34.9 26.4667 35.0933 26.28 35.24C26.1067 35.4 25.92 35.48 25.72 35.48C25.5867 35.48 25.4733 35.4333 25.38 35.34C25.3 35.26 25.2667 35.14 25.28 34.98V28.32C25.28 28.0933 25.2067 27.92 25.06 27.8C24.9133 27.68 24.7 27.62 24.42 27.62C23.98 27.6333 23.2533 27.6733 22.24 27.74Z" fill="#655560"/>
</svg>
