<svg width="20" height="20" viewBox="0 0 20 20" fill="none" xmlns="http://www.w3.org/2000/svg">
<path d="M4.2 3.56C3.66667 3.56 3.02 3.58667 2.26 3.64L1.78 3.68C1.64667 3.69333 1.54 3.66 1.46 3.58C1.39333 3.48667 1.36 3.38667 1.36 3.28C1.36 3.16 1.39333 3.06 1.46 2.98C1.54 2.9 1.64667 2.86667 1.78 2.88L2.26 2.92C3.1 2.97333 3.74667 3 4.2 3H6.68C6.77333 3 6.84667 2.97333 6.9 2.92C6.95333 2.86667 6.98 2.79333 6.98 2.7V1.98C6.98 1.64667 7.07333 1.4 7.26 1.24C7.46 1.06667 7.70667 0.98 8 0.98C8.24 0.98 8.44 1.02667 8.6 1.12C8.76 1.21333 8.84 1.30667 8.84 1.4C8.84 1.50667 8.73333 1.56667 8.52 1.58C8.44 1.59333 8.37333 1.64 8.32 1.72C8.28 1.8 8.26 1.88667 8.26 1.98V2.7C8.26 2.79333 8.28667 2.86667 8.34 2.92C8.39333 2.97333 8.46667 3 8.56 3H11.44C11.5333 3 11.6067 2.97333 11.66 2.92C11.7133 2.86667 11.74 2.79333 11.74 2.7V1.98C11.74 1.64667 11.8333 1.4 12.02 1.24C12.22 1.06667 12.4667 0.98 12.76 0.98C13 0.98 13.2 1.02667 13.36 1.12C13.52 1.21333 13.6 1.30667 13.6 1.4C13.6 1.50667 13.4933 1.56667 13.28 1.58C13.2 1.59333 13.1333 1.64 13.08 1.72C13.04 1.8 13.02 1.88667 13.02 1.98V2.7C13.02 2.79333 13.0467 2.86667 13.1 2.92C13.1533 2.97333 13.2267 3 13.32 3H15.22C15.4867 3 15.7067 2.94667 15.88 2.84C16.0667 2.72 16.26 2.56 16.46 2.36C16.7533 2.06667 17.0533 1.92 17.36 1.92C17.5333 1.92 17.7067 1.97333 17.88 2.08C18.08 2.21333 18.2667 2.37333 18.44 2.56C18.5867 2.73333 18.66 2.9 18.66 3.06C18.66 3.20667 18.6 3.32667 18.48 3.42C18.36 3.51333 18.1867 3.56 17.96 3.56L13.32 3.58C13.2267 3.58 13.1533 3.60667 13.1 3.66C13.0467 3.71333 13.02 3.78667 13.02 3.88L13.04 4.42C13.0533 4.66 12.9667 4.86 12.78 5.02C12.5933 5.16667 12.3933 5.24 12.18 5.24C12.0467 5.24 11.9333 5.2 11.84 5.12C11.7467 5.02667 11.7 4.9 11.7 4.74L11.72 3.88C11.72 3.68 11.6267 3.58 11.44 3.58L8.56 3.56C8.46667 3.56 8.39333 3.58667 8.34 3.64C8.28667 3.69333 8.26 3.76667 8.26 3.86L8.28 4.42C8.29333 4.66 8.20667 4.86 8.02 5.02C7.83333 5.16667 7.63333 5.24 7.42 5.24C7.28667 5.24 7.17333 5.2 7.08 5.12C6.98667 5.02667 6.94 4.9 6.94 4.74L6.96 3.86C6.96 3.66 6.86667 3.56 6.68 3.56H4.2ZM7.76 18.7C9.17333 18.0867 10.24 17.0867 10.96 15.7C11.6933 14.3133 12.16 13 12.36 11.76C12.56 10.52 12.66 9.58 12.66 8.94L12.68 7.22C12.6933 7.03333 12.7 6.77333 12.7 6.44C12.7 6.10667 12.7933 5.86 12.98 5.7C13.18 5.52667 13.4267 5.44 13.72 5.44C13.96 5.44 14.16 5.48667 14.32 5.58C14.48 5.67333 14.56 5.76667 14.56 5.86C14.56 5.96667 14.4533 6.02667 14.24 6.04C14.16 6.05333 14.0933 6.1 14.04 6.18C14 6.26 13.98 6.34667 13.98 6.44C13.98 6.81333 13.9667 7.30667 13.94 7.92L13.92 9.16C14.0667 10.8533 14.2933 12.22 14.6 13.26C14.9067 14.3 15.4067 15.2067 16.1 15.98C16.7933 16.7533 17.7933 17.46 19.1 18.1C19.3 18.2067 19.4 18.3133 19.4 18.42C19.4 18.4733 19.3667 18.5133 19.3 18.54C19.2467 18.58 19.1733 18.5933 19.08 18.58C18.7467 18.54 18.46 18.58 18.22 18.7C17.98 18.8333 17.8267 18.9867 17.76 19.16C17.6933 19.3467 17.6 19.44 17.48 19.44C17.4267 19.44 17.3667 19.42 17.3 19.38C15.54 18.2733 14.3267 16.4533 13.66 13.92C13.58 13.6267 13.4933 13.48 13.4 13.48C13.32 13.48 13.2267 13.6133 13.12 13.88C12.6933 15.0667 12.06 16.14 11.22 17.1C10.38 18.0467 9.28667 18.7733 7.94 19.28C7.82 19.32 7.71333 19.34 7.62 19.34C7.52667 19.34 7.44667 19.32 7.38 19.28C7.32667 19.24 7.3 19.1867 7.3 19.12C7.3 18.9733 7.45333 18.8333 7.76 18.7ZM0.74 17.2C1.38 16.6533 1.98 16 2.54 15.24C3.1 14.48 3.54667 13.7667 3.88 13.1C4.21333 12.42 4.38 11.9467 4.38 11.68C4.38 11.5333 4.32 11.4133 4.2 11.32C4.08 11.2133 3.90667 11.16 3.68 11.16C3.21333 11.1467 2.59333 11.1667 1.82 11.22L1.3 11.26C1.16667 11.2733 1.06 11.24 0.98 11.16C0.913333 11.0667 0.88 10.9667 0.88 10.86C0.88 10.74 0.913333 10.64 0.98 10.56C1.06 10.48 1.16667 10.4467 1.3 10.46C2.74 10.5267 3.4 10.56 3.28 10.56L3.72 10.58C3.94667 10.5933 4.12 10.54 4.24 10.42C4.36 10.2867 4.42 10.1067 4.42 9.88V9.2C4.42 9 4.37333 8.84667 4.28 8.74C4.18667 8.63333 4.06 8.58 3.9 8.58C3.80667 8.58 3.71333 8.6 3.62 8.64C2.99333 8.85333 2.23333 9.06 1.34 9.26L1.22 9.28C1.12667 9.28 1.05333 9.26 1 9.22C0.96 9.18 0.94 9.12667 0.94 9.06C0.94 8.99333 0.966667 8.93333 1.02 8.88C1.07333 8.81333 1.14 8.76667 1.22 8.74C2.26 8.34 3.14667 7.91333 3.88 7.46C4.62667 7.00667 5.36 6.48667 6.08 5.9C6.41333 5.62 6.76667 5.48 7.14 5.48C7.39333 5.48 7.62667 5.55333 7.84 5.7C8.06667 5.83333 8.25333 6.04 8.4 6.32C8.44 6.4 8.46 6.46667 8.46 6.52C8.46 6.61333 8.42667 6.68 8.36 6.72C8.29333 6.76 8.22 6.75333 8.14 6.7C8.07333 6.66 8.00667 6.64 7.94 6.64C7.84667 6.64 7.72667 6.68 7.58 6.76C7.44667 6.84 7.36 6.89333 7.32 6.92C7.10667 7.05333 6.94667 7.14667 6.84 7.2C6.6 7.33333 6.43333 7.43333 6.34 7.5C6.12667 7.62 5.96667 7.74667 5.86 7.88C5.75333 8.01333 5.7 8.18 5.7 8.38V9.66C5.7 10.1267 5.84667 10.36 6.14 10.36C6.36667 10.36 6.62 10.22 6.9 9.94C7.19333 9.64667 7.49333 9.5 7.8 9.5C8.18667 9.5 8.54667 9.71333 8.88 10.14C9.02667 10.3133 9.1 10.48 9.1 10.64C9.1 10.7867 9.04 10.9067 8.92 11C8.8 11.0933 8.62667 11.14 8.4 11.14L6.4 11.16C6.18667 11.16 6.01333 11.2133 5.88 11.32C5.76 11.4133 5.7 11.5267 5.7 11.66C5.7 11.8333 5.71333 11.9533 5.74 12.02C5.78 12.0867 5.84667 12.1467 5.94 12.2C6.59333 12.56 7.18 13.02 7.7 13.58C8.23333 14.14 8.5 14.66 8.5 15.14C8.5 15.3533 8.42667 15.5267 8.28 15.66C8.14667 15.7933 7.98667 15.86 7.8 15.86C7.68 15.86 7.56667 15.8267 7.46 15.76C7.36667 15.6933 7.29333 15.5933 7.24 15.46C7.08 15.0067 6.89333 14.5933 6.68 14.22C6.48 13.8333 6.28 13.54 6.08 13.34C5.98667 13.2467 5.90667 13.2 5.84 13.2C5.74667 13.2 5.7 13.2933 5.7 13.48V18.74C5.7 18.98 5.60667 19.1733 5.42 19.32C5.24667 19.48 5.06 19.56 4.86 19.56C4.72667 19.56 4.61333 19.5133 4.52 19.42C4.44 19.34 4.40667 19.22 4.42 19.06V14.9C4.42 14.74 4.38 14.66 4.3 14.66C4.23333 14.66 4.16 14.7133 4.08 14.82C3.61333 15.4067 3.09333 16 2.52 16.6C1.94667 17.1867 1.48667 17.58 1.14 17.78C1.04667 17.8333 0.953333 17.86 0.86 17.86C0.766667 17.86 0.693333 17.8333 0.64 17.78C0.586667 17.7133 0.56 17.64 0.56 17.56C0.56 17.4267 0.62 17.3067 0.74 17.2ZM15.06 12.7C15.4333 12.1267 15.74 11.52 15.98 10.88C16.2333 10.2267 16.4867 9.44667 16.74 8.54C16.8067 8.3 16.9267 8.12 17.1 8C17.2733 7.86667 17.4733 7.8 17.7 7.8C17.9933 7.8 18.26 7.90667 18.5 8.12C18.74 8.32 18.8867 8.60667 18.94 8.98V9.06C18.94 9.16667 18.9067 9.24667 18.84 9.3C18.7733 9.34 18.7 9.32667 18.62 9.26C18.5267 9.19333 18.4533 9.16 18.4 9.16C18.24 9.16 18.0867 9.34 17.94 9.7C17.6333 10.38 17.2667 11.0267 16.84 11.64C16.4267 12.24 15.9867 12.7333 15.52 13.12C15.4267 13.2 15.3333 13.24 15.24 13.24C15.16 13.24 15.0933 13.2133 15.04 13.16C14.9867 13.1067 14.96 13.04 14.96 12.96C14.96 12.8933 14.9933 12.8067 15.06 12.7ZM8.92 11.98C9.34667 11.4733 9.65333 10.96 9.84 10.44C10.04 9.90667 10.14 9.40667 10.14 8.94C10.14 8.71333 10.12 8.51333 10.08 8.34V8.24C10.08 8.14667 10.1 8.07333 10.14 8.02C10.1933 7.95333 10.2533 7.92 10.32 7.92C10.3867 7.92 10.4733 7.97333 10.58 8.08C10.74 8.28 10.8667 8.57333 10.96 8.96C11.0533 9.33333 11.1 9.73333 11.1 10.16C11.1 10.6533 11.04 11.1267 10.92 11.58C10.8133 12.0333 10.6467 12.4067 10.42 12.7C10.1 13.1133 9.77333 13.32 9.44 13.32C9.22667 13.32 9.04667 13.2467 8.9 13.1C8.76667 12.94 8.7 12.76 8.7 12.56C8.7 12.3333 8.77333 12.14 8.92 11.98Z" fill="#655560"/>
</svg>
