<svg width="50" height="50" viewBox="0 0 50 50" fill="none" xmlns="http://www.w3.org/2000/svg">
<rect width="50" height="50" rx="25" fill="#A4969B"/>
<path d="M22.58 18.2C22.58 18.0533 22.68 17.98 22.88 17.98C23.12 17.98 23.3133 18.0133 23.46 18.08C23.62 18.1467 23.78 18.2333 23.94 18.34C24.1 18.4467 24.2133 18.5 24.28 18.5H28.72C28.84 18.5 28.9533 18.4733 29.06 18.42C29.18 18.3533 29.2867 18.28 29.38 18.2C29.46 18.1333 29.5467 18.0733 29.64 18.02C29.7333 17.9533 29.8267 17.92 29.92 17.92C30.0667 17.92 30.2533 17.9867 30.48 18.12C30.72 18.2533 30.9267 18.4067 31.1 18.58C31.2733 18.7533 31.36 18.8933 31.36 19C31.36 19.0933 31.34 19.1667 31.3 19.22C31.26 19.26 31.2 19.3133 31.12 19.38C31.0133 19.46 30.9267 19.5467 30.86 19.64C30.8067 19.7333 30.78 19.8733 30.78 20.06V25.68C30.78 25.9333 30.6867 26.1333 30.5 26.28C30.3133 26.4267 30.1067 26.5 29.88 26.5C29.5867 26.5 29.44 26.32 29.44 25.96C29.44 25.7733 29.38 25.6267 29.26 25.52C29.14 25.4133 28.9667 25.36 28.74 25.36H24.54C24.1133 25.36 23.8867 25.5133 23.86 25.82C23.8467 26.0333 23.7533 26.2 23.58 26.32C23.42 26.44 23.2333 26.5 23.02 26.5C22.8867 26.5 22.78 26.46 22.7 26.38C22.62 26.3 22.58 26.1867 22.58 26.04V18.2ZM18.58 20.46C18.3267 19.9933 18.0867 19.64 17.86 19.4C17.6467 19.1467 17.3467 18.8467 16.96 18.5C16.8533 18.3933 16.8 18.3 16.8 18.22C16.8 18.1 16.8867 18.04 17.06 18.04C17.3 18.04 17.6 18.1333 17.96 18.32C18.3333 18.5067 18.68 18.7467 19 19.04C19.3333 19.3333 19.56 19.64 19.68 19.96C19.7333 20.08 19.76 20.2 19.76 20.32C19.76 20.4933 19.7067 20.6333 19.6 20.74C19.4933 20.8467 19.3667 20.9 19.22 20.9C19.1 20.9 18.98 20.8667 18.86 20.8C18.7533 20.72 18.66 20.6067 18.58 20.46ZM23.86 20.9C23.86 21.34 24.0867 21.5733 24.54 21.6L28.82 21.62C29.0333 21.62 29.2 21.56 29.32 21.44C29.44 21.32 29.5 21.1467 29.5 20.92V19.74C29.5 19.5133 29.44 19.34 29.32 19.22C29.2 19.1 29.0267 19.04 28.8 19.04H24.56C24.3467 19.04 24.1733 19.1 24.04 19.22C23.92 19.34 23.86 19.5133 23.86 19.74V20.9ZM19.02 33.96C19.02 34.3467 18.9667 34.6333 18.86 34.82C18.7667 35.02 18.6 35.12 18.36 35.12C18.08 35.12 17.9 34.92 17.82 34.52C17.74 34.1333 17.7 33.6 17.7 32.92C17.7 32.4133 17.6667 32.0267 17.6 31.76C17.5467 31.48 17.42 31.2667 17.22 31.12C17.02 30.9733 16.72 30.9 16.32 30.9C16.1867 30.9 16.0733 30.8667 15.98 30.8C15.9 30.72 15.86 30.64 15.86 30.56C15.86 30.4667 15.9067 30.3933 16 30.34C16.0933 30.2867 16.2333 30.2667 16.42 30.28C16.8733 30.3067 17.2 30.2667 17.4 30.16C17.6133 30.04 17.7533 29.8933 17.82 29.72C17.9 29.5333 18.0067 29.1733 18.14 28.64C19.2467 23.8933 20.0333 21.6333 20.5 21.86C20.5933 21.9133 20.64 22 20.64 22.12C20.64 22.28 20.56 22.58 20.4 23.02C20.1333 23.8733 19.88 24.7667 19.64 25.7C19.4 26.62 19.1467 27.8933 18.88 29.52C18.7733 30.08 18.72 30.8067 18.72 31.7C18.72 32.0733 18.78 32.5733 18.9 33.2C18.98 33.6 19.02 33.8533 19.02 33.96ZM24.54 22.28C24.3267 22.28 24.16 22.34 24.04 22.46C23.92 22.58 23.86 22.7533 23.86 22.98V24.1C23.86 24.3133 23.92 24.48 24.04 24.6C24.16 24.72 24.3333 24.7867 24.56 24.8L28.8 24.82C29.0133 24.8333 29.18 24.78 29.3 24.66C29.4333 24.5267 29.5 24.3467 29.5 24.12V22.96C29.5 22.7333 29.4467 22.56 29.34 22.44C29.2333 22.32 29.0867 22.26 28.9 22.26L24.54 22.28ZM17.16 24.72C16.8667 24.2533 16.6067 23.9067 16.38 23.68C16.1667 23.44 15.8733 23.2 15.5 22.96C15.3933 22.8933 15.34 22.8067 15.34 22.7C15.34 22.5533 15.48 22.5 15.76 22.54C16.2933 22.62 16.8267 22.8333 17.36 23.18C17.9067 23.5133 18.22 23.86 18.3 24.22C18.3267 24.3533 18.34 24.4533 18.34 24.52C18.34 24.7067 18.2867 24.86 18.18 24.98C18.0867 25.0867 17.9667 25.14 17.82 25.14C17.5667 25.14 17.3467 25 17.16 24.72ZM19.7 34.84C19.5667 34.8533 19.46 34.8133 19.38 34.72C19.3133 34.64 19.28 34.5467 19.28 34.44C19.28 34.32 19.3133 34.22 19.38 34.14C19.46 34.06 19.5667 34.0267 19.7 34.04C20.4467 34.0933 20.8933 34.12 21.04 34.12C21.1867 34.12 21.3 34.0733 21.38 33.98C21.46 33.8867 21.5 33.7667 21.5 33.62L21.46 27.44C21.46 27.2933 21.56 27.22 21.76 27.22C21.9067 27.22 22.0533 27.26 22.2 27.34C22.36 27.4067 22.4867 27.5067 22.58 27.64C22.6867 27.7867 22.8067 27.86 22.94 27.86H29.8C29.92 27.86 30.0267 27.8333 30.12 27.78C30.2133 27.7267 30.3333 27.64 30.48 27.52C30.68 27.32 30.86 27.22 31.02 27.22C31.2333 27.22 31.4333 27.2867 31.62 27.42C31.82 27.54 31.98 27.6867 32.1 27.86C32.22 28.02 32.28 28.1533 32.28 28.26C32.28 28.34 32.26 28.4133 32.22 28.48C32.18 28.5333 32.1333 28.58 32.08 28.62C31.9867 28.7267 31.9133 28.8267 31.86 28.92C31.82 29.0133 31.8 29.1467 31.8 29.32V33.42C31.8 33.5667 31.8267 33.6867 31.88 33.78C31.9333 33.8733 32.0067 33.92 32.1 33.92C32.1667 33.92 32.2267 33.9 32.28 33.86C32.3733 33.7933 32.5 33.68 32.66 33.52C32.9533 33.2267 33.2333 33.08 33.5 33.08C33.8067 33.08 34.16 33.2933 34.56 33.72C34.7067 33.8933 34.78 34.06 34.78 34.22C34.78 34.3667 34.72 34.4867 34.6 34.58C34.48 34.6733 34.3067 34.72 34.08 34.72H22.12C21.5867 34.72 20.94 34.7467 20.18 34.8L19.7 34.84ZM22.74 33.66C22.74 33.9933 22.9067 34.16 23.24 34.16H23.98C24.3133 34.16 24.48 33.9933 24.48 33.66V28.98C24.48 28.6467 24.3133 28.48 23.98 28.48H23.24C22.9067 28.48 22.74 28.6467 22.74 28.98V33.66ZM25.76 33.66C25.76 33.9933 25.9267 34.16 26.26 34.16H27C27.3333 34.16 27.5 33.9933 27.5 33.66V28.98C27.5 28.6467 27.3333 28.48 27 28.48H26.26C25.9267 28.48 25.76 28.6467 25.76 28.98V33.66ZM28.78 33.66C28.78 33.9933 28.9467 34.16 29.28 34.16H30.06C30.3933 34.16 30.56 33.9933 30.56 33.66V28.98C30.56 28.6467 30.3933 28.48 30.06 28.48H29.28C28.9467 28.48 28.78 28.6467 28.78 28.98V33.66Z" fill="#FCF7FF"/>
</svg>
