<svg width="160" height="60" viewBox="0 0 160 60" fill="none" xmlns="http://www.w3.org/2000/svg">
<g clip-path="url(#clip0_15_398)">
<path d="M22.7 10.56C22.1667 10.56 21.52 10.5867 20.76 10.64L20.28 10.68C20.1467 10.6933 20.04 10.66 19.96 10.58C19.8933 10.4867 19.86 10.3867 19.86 10.28C19.86 10.16 19.8933 10.06 19.96 9.98C20.04 9.9 20.1467 9.86667 20.28 9.88L20.76 9.92C21.6 9.97333 22.2467 10 22.7 10H25.18C25.2733 10 25.3467 9.97333 25.4 9.92C25.4533 9.86667 25.48 9.79333 25.48 9.7V8.98C25.48 8.64667 25.5733 8.4 25.76 8.24C25.96 8.06667 26.2067 7.98 26.5 7.98C26.74 7.98 26.94 8.02667 27.1 8.12C27.26 8.21333 27.34 8.30667 27.34 8.4C27.34 8.50667 27.2333 8.56667 27.02 8.58C26.94 8.59333 26.8733 8.64 26.82 8.72C26.78 8.8 26.76 8.88667 26.76 8.98V9.7C26.76 9.79333 26.7867 9.86667 26.84 9.92C26.8933 9.97333 26.9667 10 27.06 10H29.94C30.0333 10 30.1067 9.97333 30.16 9.92C30.2133 9.86667 30.24 9.79333 30.24 9.7V8.98C30.24 8.64667 30.3333 8.4 30.52 8.24C30.72 8.06667 30.9667 7.98 31.26 7.98C31.5 7.98 31.7 8.02667 31.86 8.12C32.02 8.21333 32.1 8.30667 32.1 8.4C32.1 8.50667 31.9933 8.56667 31.78 8.58C31.7 8.59333 31.6333 8.64 31.58 8.72C31.54 8.8 31.52 8.88667 31.52 8.98V9.7C31.52 9.79333 31.5467 9.86667 31.6 9.92C31.6533 9.97333 31.7267 10 31.82 10H33.72C33.9867 10 34.2067 9.94667 34.38 9.84C34.5667 9.72 34.76 9.56 34.96 9.36C35.2533 9.06667 35.5533 8.92 35.86 8.92C36.0333 8.92 36.2067 8.97333 36.38 9.08C36.58 9.21333 36.7667 9.37333 36.94 9.56C37.0867 9.73333 37.16 9.9 37.16 10.06C37.16 10.2067 37.1 10.3267 36.98 10.42C36.86 10.5133 36.6867 10.56 36.46 10.56L31.82 10.58C31.7267 10.58 31.6533 10.6067 31.6 10.66C31.5467 10.7133 31.52 10.7867 31.52 10.88L31.54 11.42C31.5533 11.66 31.4667 11.86 31.28 12.02C31.0933 12.1667 30.8933 12.24 30.68 12.24C30.5467 12.24 30.4333 12.2 30.34 12.12C30.2467 12.0267 30.2 11.9 30.2 11.74L30.22 10.88C30.22 10.68 30.1267 10.58 29.94 10.58L27.06 10.56C26.9667 10.56 26.8933 10.5867 26.84 10.64C26.7867 10.6933 26.76 10.7667 26.76 10.86L26.78 11.42C26.7933 11.66 26.7067 11.86 26.52 12.02C26.3333 12.1667 26.1333 12.24 25.92 12.24C25.7867 12.24 25.6733 12.2 25.58 12.12C25.4867 12.0267 25.44 11.9 25.44 11.74L25.46 10.86C25.46 10.66 25.3667 10.56 25.18 10.56H22.7ZM26.26 25.7C27.6733 25.0867 28.74 24.0867 29.46 22.7C30.1933 21.3133 30.66 20 30.86 18.76C31.06 17.52 31.16 16.58 31.16 15.94L31.18 14.22C31.1933 14.0333 31.2 13.7733 31.2 13.44C31.2 13.1067 31.2933 12.86 31.48 12.7C31.68 12.5267 31.9267 12.44 32.22 12.44C32.46 12.44 32.66 12.4867 32.82 12.58C32.98 12.6733 33.06 12.7667 33.06 12.86C33.06 12.9667 32.9533 13.0267 32.74 13.04C32.66 13.0533 32.5933 13.1 32.54 13.18C32.5 13.26 32.48 13.3467 32.48 13.44C32.48 13.8133 32.4667 14.3067 32.44 14.92L32.42 16.16C32.5667 17.8533 32.7933 19.22 33.1 20.26C33.4067 21.3 33.9067 22.2067 34.6 22.98C35.2933 23.7533 36.2933 24.46 37.6 25.1C37.8 25.2067 37.9 25.3133 37.9 25.42C37.9 25.4733 37.8667 25.5133 37.8 25.54C37.7467 25.58 37.6733 25.5933 37.58 25.58C37.2467 25.54 36.96 25.58 36.72 25.7C36.48 25.8333 36.3267 25.9867 36.26 26.16C36.1933 26.3467 36.1 26.44 35.98 26.44C35.9267 26.44 35.8667 26.42 35.8 26.38C34.04 25.2733 32.8267 23.4533 32.16 20.92C32.08 20.6267 31.9933 20.48 31.9 20.48C31.82 20.48 31.7267 20.6133 31.62 20.88C31.1933 22.0667 30.56 23.14 29.72 24.1C28.88 25.0467 27.7867 25.7733 26.44 26.28C26.32 26.32 26.2133 26.34 26.12 26.34C26.0267 26.34 25.9467 26.32 25.88 26.28C25.8267 26.24 25.8 26.1867 25.8 26.12C25.8 25.9733 25.9533 25.8333 26.26 25.7ZM19.24 24.2C19.88 23.6533 20.48 23 21.04 22.24C21.6 21.48 22.0467 20.7667 22.38 20.1C22.7133 19.42 22.88 18.9467 22.88 18.68C22.88 18.5333 22.82 18.4133 22.7 18.32C22.58 18.2133 22.4067 18.16 22.18 18.16C21.7133 18.1467 21.0933 18.1667 20.32 18.22L19.8 18.26C19.6667 18.2733 19.56 18.24 19.48 18.16C19.4133 18.0667 19.38 17.9667 19.38 17.86C19.38 17.74 19.4133 17.64 19.48 17.56C19.56 17.48 19.6667 17.4467 19.8 17.46C21.24 17.5267 21.9 17.56 21.78 17.56L22.22 17.58C22.4467 17.5933 22.62 17.54 22.74 17.42C22.86 17.2867 22.92 17.1067 22.92 16.88V16.2C22.92 16 22.8733 15.8467 22.78 15.74C22.6867 15.6333 22.56 15.58 22.4 15.58C22.3067 15.58 22.2133 15.6 22.12 15.64C21.4933 15.8533 20.7333 16.06 19.84 16.26L19.72 16.28C19.6267 16.28 19.5533 16.26 19.5 16.22C19.46 16.18 19.44 16.1267 19.44 16.06C19.44 15.9933 19.4667 15.9333 19.52 15.88C19.5733 15.8133 19.64 15.7667 19.72 15.74C20.76 15.34 21.6467 14.9133 22.38 14.46C23.1267 14.0067 23.86 13.4867 24.58 12.9C24.9133 12.62 25.2667 12.48 25.64 12.48C25.8933 12.48 26.1267 12.5533 26.34 12.7C26.5667 12.8333 26.7533 13.04 26.9 13.32C26.94 13.4 26.96 13.4667 26.96 13.52C26.96 13.6133 26.9267 13.68 26.86 13.72C26.7933 13.76 26.72 13.7533 26.64 13.7C26.5733 13.66 26.5067 13.64 26.44 13.64C26.3467 13.64 26.2267 13.68 26.08 13.76C25.9467 13.84 25.86 13.8933 25.82 13.92C25.6067 14.0533 25.4467 14.1467 25.34 14.2C25.1 14.3333 24.9333 14.4333 24.84 14.5C24.6267 14.62 24.4667 14.7467 24.36 14.88C24.2533 15.0133 24.2 15.18 24.2 15.38V16.66C24.2 17.1267 24.3467 17.36 24.64 17.36C24.8667 17.36 25.12 17.22 25.4 16.94C25.6933 16.6467 25.9933 16.5 26.3 16.5C26.6867 16.5 27.0467 16.7133 27.38 17.14C27.5267 17.3133 27.6 17.48 27.6 17.64C27.6 17.7867 27.54 17.9067 27.42 18C27.3 18.0933 27.1267 18.14 26.9 18.14L24.9 18.16C24.6867 18.16 24.5133 18.2133 24.38 18.32C24.26 18.4133 24.2 18.5267 24.2 18.66C24.2 18.8333 24.2133 18.9533 24.24 19.02C24.28 19.0867 24.3467 19.1467 24.44 19.2C25.0933 19.56 25.68 20.02 26.2 20.58C26.7333 21.14 27 21.66 27 22.14C27 22.3533 26.9267 22.5267 26.78 22.66C26.6467 22.7933 26.4867 22.86 26.3 22.86C26.18 22.86 26.0667 22.8267 25.96 22.76C25.8667 22.6933 25.7933 22.5933 25.74 22.46C25.58 22.0067 25.3933 21.5933 25.18 21.22C24.98 20.8333 24.78 20.54 24.58 20.34C24.4867 20.2467 24.4067 20.2 24.34 20.2C24.2467 20.2 24.2 20.2933 24.2 20.48V25.74C24.2 25.98 24.1067 26.1733 23.92 26.32C23.7467 26.48 23.56 26.56 23.36 26.56C23.2267 26.56 23.1133 26.5133 23.02 26.42C22.94 26.34 22.9067 26.22 22.92 26.06V21.9C22.92 21.74 22.88 21.66 22.8 21.66C22.7333 21.66 22.66 21.7133 22.58 21.82C22.1133 22.4067 21.5933 23 21.02 23.6C20.4467 24.1867 19.9867 24.58 19.64 24.78C19.5467 24.8333 19.4533 24.86 19.36 24.86C19.2667 24.86 19.1933 24.8333 19.14 24.78C19.0867 24.7133 19.06 24.64 19.06 24.56C19.06 24.4267 19.12 24.3067 19.24 24.2ZM33.56 19.7C33.9333 19.1267 34.24 18.52 34.48 17.88C34.7333 17.2267 34.9867 16.4467 35.24 15.54C35.3067 15.3 35.4267 15.12 35.6 15C35.7733 14.8667 35.9733 14.8 36.2 14.8C36.4933 14.8 36.76 14.9067 37 15.12C37.24 15.32 37.3867 15.6067 37.44 15.98V16.06C37.44 16.1667 37.4067 16.2467 37.34 16.3C37.2733 16.34 37.2 16.3267 37.12 16.26C37.0267 16.1933 36.9533 16.16 36.9 16.16C36.74 16.16 36.5867 16.34 36.44 16.7C36.1333 17.38 35.7667 18.0267 35.34 18.64C34.9267 19.24 34.4867 19.7333 34.02 20.12C33.9267 20.2 33.8333 20.24 33.74 20.24C33.66 20.24 33.5933 20.2133 33.54 20.16C33.4867 20.1067 33.46 20.04 33.46 19.96C33.46 19.8933 33.4933 19.8067 33.56 19.7ZM27.42 18.98C27.8467 18.4733 28.1533 17.96 28.34 17.44C28.54 16.9067 28.64 16.4067 28.64 15.94C28.64 15.7133 28.62 15.5133 28.58 15.34V15.24C28.58 15.1467 28.6 15.0733 28.64 15.02C28.6933 14.9533 28.7533 14.92 28.82 14.92C28.8867 14.92 28.9733 14.9733 29.08 15.08C29.24 15.28 29.3667 15.5733 29.46 15.96C29.5533 16.3333 29.6 16.7333 29.6 17.16C29.6 17.6533 29.54 18.1267 29.42 18.58C29.3133 19.0333 29.1467 19.4067 28.92 19.7C28.6 20.1133 28.2733 20.32 27.94 20.32C27.7267 20.32 27.5467 20.2467 27.4 20.1C27.2667 19.94 27.2 19.76 27.2 19.56C27.2 19.3333 27.2733 19.14 27.42 18.98ZM55.16 9.44C55.0267 9.45333 54.92 9.42 54.84 9.34C54.7733 9.24667 54.74 9.14667 54.74 9.04C54.74 8.92 54.7733 8.82 54.84 8.74C54.92 8.66 55.0267 8.62667 55.16 8.64C56.1867 8.70667 57.9133 8.74 60.34 8.74C60.54 8.74 60.76 8.62 61 8.38C61.2 8.18 61.3667 8.08 61.5 8.08C61.7267 8.06667 61.9533 8.12 62.18 8.24C62.42 8.36 62.62 8.50667 62.78 8.68C62.94 8.84 63.02 8.97333 63.02 9.08C63.02 9.17333 62.9867 9.24667 62.92 9.3C62.8667 9.34 62.7533 9.4 62.58 9.48C62.5533 9.49333 62.4533 9.54667 62.28 9.64C62.1067 9.72 61.9533 9.84 61.82 10C61.18 10.76 60.38 11.5267 59.42 12.3C59.2867 12.3933 59.22 12.5067 59.22 12.64C59.22 12.76 59.28 12.88 59.4 13C59.64 13.24 59.8 13.4667 59.88 13.68C59.9333 13.8 59.96 13.9267 59.96 14.06C59.96 14.2333 59.9067 14.3667 59.8 14.46C59.6933 14.5533 59.56 14.6 59.4 14.6C59.16 14.6 58.9467 14.4867 58.76 14.26C58.3867 13.7667 57.9667 13.2867 57.5 12.82C57.0333 12.3533 56.58 11.9933 56.14 11.74C56.0467 11.6733 56 11.6 56 11.52C56 11.4667 56.0267 11.42 56.08 11.38C56.1333 11.34 56.2067 11.3267 56.3 11.34C56.8067 11.4067 57.4067 11.64 58.1 12.04C58.22 12.12 58.3333 12.16 58.44 12.16C58.56 12.16 58.68 12.1 58.8 11.98C59.3067 11.5133 59.82 10.9267 60.34 10.22C60.4333 10.0867 60.48 9.95333 60.48 9.82C60.48 9.67333 60.4067 9.55333 60.26 9.46C60.1267 9.36667 59.9333 9.32 59.68 9.32L58.14 9.36C56.9933 9.37333 56 9.4 55.16 9.44ZM45.22 16.08C45.2333 15.9467 45.24 15.7533 45.24 15.5L45.26 8.48C45.26 8.33333 45.36 8.26 45.56 8.26C45.8 8.26 45.9933 8.29333 46.14 8.36C46.3 8.42667 46.46 8.51333 46.62 8.62C46.78 8.72667 46.8933 8.78 46.96 8.78H51.64C51.76 8.78 51.8733 8.75333 51.98 8.7C52.1 8.63333 52.2067 8.56 52.3 8.48C52.38 8.41333 52.4667 8.35333 52.56 8.3C52.6533 8.23333 52.7467 8.2 52.84 8.2C52.9867 8.2 53.1733 8.26667 53.4 8.4C53.64 8.53333 53.8467 8.68667 54.02 8.86C54.1933 9.03333 54.28 9.17333 54.28 9.28C54.28 9.37333 54.26 9.44667 54.22 9.5C54.18 9.54 54.12 9.59333 54.04 9.66C53.9333 9.74 53.8467 9.82667 53.78 9.92C53.7267 10.0133 53.7 10.1533 53.7 10.34V16.54C53.7 16.7933 53.6067 16.9933 53.42 17.14C53.2333 17.2867 53.0267 17.36 52.8 17.36C52.6133 17.36 52.4933 17.3067 52.44 17.2C52.3867 17.08 52.36 16.9267 52.36 16.74C52.36 16.5 52.3 16.3133 52.18 16.18C52.06 16.0333 51.8867 15.96 51.66 15.96H50.82C50.6067 15.96 50.4333 16.02 50.3 16.14C50.18 16.26 50.12 16.4333 50.12 16.66V19.02C50.12 19.2333 50.1667 19.4067 50.26 19.54C50.3533 19.6733 50.48 19.74 50.64 19.74C50.7467 19.74 50.8467 19.72 50.94 19.68C51.0467 19.64 51.14 19.5733 51.22 19.48C51.3133 19.3733 51.38 19.3 51.42 19.26C51.7133 18.9667 52.0067 18.82 52.3 18.82C52.66 18.82 53.0267 19.0333 53.4 19.46C53.5467 19.6333 53.62 19.8 53.62 19.96C53.62 20.1067 53.56 20.2267 53.44 20.32C53.32 20.4133 53.1467 20.46 52.92 20.46L51.02 20.48C50.42 20.48 50.12 20.7133 50.12 21.18V23.24C50.12 23.44 50.1667 23.6 50.26 23.72C50.3667 23.8267 50.5133 23.88 50.7 23.88C50.78 23.88 50.8467 23.8733 50.9 23.86L51.32 23.76C51.4 23.7333 51.68 23.6667 52.16 23.56C52.64 23.44 53.0467 23.3067 53.38 23.16C53.4867 23.1333 53.5533 23.12 53.58 23.12C53.66 23.12 53.72 23.1467 53.76 23.2C53.8133 23.24 53.84 23.2933 53.84 23.36C53.84 23.48 53.7733 23.58 53.64 23.66C52.9333 24.0733 51.8667 24.4733 50.44 24.86C49.0133 25.2467 47.6 25.58 46.2 25.86C46.0133 25.9 45.8933 25.9667 45.84 26.06C45.7867 26.1667 45.78 26.28 45.82 26.4C45.8333 26.4267 45.84 26.4667 45.84 26.52C45.84 26.64 45.7933 26.7 45.7 26.7C45.6333 26.7 45.5533 26.6733 45.46 26.62C45.2467 26.4867 45.0667 26.3133 44.92 26.1C44.7867 25.8867 44.72 25.6733 44.72 25.46C44.72 25.2733 44.7867 25.1133 44.92 24.98C45.0533 24.8333 45.2467 24.74 45.5 24.7C45.6467 24.6733 45.7867 24.6533 45.92 24.64C46.0667 24.6267 46.2067 24.6133 46.34 24.6C47.34 24.4667 47.96 24.38 48.2 24.34C48.6267 24.2733 48.84 24.0267 48.84 23.6V21.16C48.84 20.7067 48.6267 20.48 48.2 20.48C47.5333 20.48 46.78 20.5133 45.94 20.58C45.8067 20.5933 45.7 20.56 45.62 20.48C45.5533 20.4 45.52 20.3 45.52 20.18C45.52 20.0733 45.5533 19.98 45.62 19.9C45.7 19.82 45.8067 19.78 45.94 19.78L48.14 19.88C48.6067 19.9067 48.84 19.68 48.84 19.2V16.66C48.84 16.4333 48.78 16.26 48.66 16.14C48.54 16.02 48.3667 15.96 48.14 15.96H47.24C47.0133 15.96 46.84 16.0133 46.72 16.12C46.6 16.2133 46.54 16.3533 46.54 16.54C46.54 16.78 46.4467 16.98 46.26 17.14C46.0733 17.2867 45.8733 17.36 45.66 17.36C45.5267 17.36 45.4133 17.32 45.32 17.24C45.24 17.16 45.2 17.0467 45.2 16.9L45.22 16.08ZM46.54 11.34C46.54 11.5667 46.6 11.74 46.72 11.86C46.84 11.98 47.0067 12.04 47.22 12.04H48.14C48.3667 12.04 48.54 11.98 48.66 11.86C48.78 11.7267 48.84 11.5533 48.84 11.34V10.02C48.84 9.79333 48.78 9.62 48.66 9.5C48.54 9.38 48.3667 9.32 48.14 9.32H47.24C47.0267 9.32 46.8533 9.38 46.72 9.5C46.6 9.62 46.54 9.79333 46.54 10.02V11.34ZM50.82 9.32C50.6067 9.32 50.4333 9.38 50.3 9.5C50.18 9.62 50.12 9.79333 50.12 10.02V11.36C50.12 11.5733 50.18 11.7467 50.3 11.88C50.4333 12 50.6067 12.06 50.82 12.06H51.74C51.9533 12.06 52.12 12 52.24 11.88C52.36 11.76 52.42 11.5867 52.42 11.36V10.02C52.42 9.79333 52.36 9.62 52.24 9.5C52.12 9.38 51.9467 9.32 51.72 9.32H50.82ZM50.12 14.72C50.12 14.9333 50.18 15.1067 50.3 15.24C50.4333 15.36 50.6067 15.42 50.82 15.42H51.72C51.9467 15.42 52.12 15.36 52.24 15.24C52.36 15.1067 52.42 14.9333 52.42 14.72V13.4C52.42 13.1733 52.3667 13 52.26 12.88C52.1533 12.76 52.0067 12.7 51.82 12.7H50.82C50.6067 12.7 50.4333 12.76 50.3 12.88C50.18 13 50.12 13.1733 50.12 13.4V14.72ZM46.54 14.7C46.54 14.9133 46.6 15.0867 46.72 15.22C46.8533 15.34 47.0267 15.4 47.24 15.4H48.14C48.3667 15.4 48.54 15.34 48.66 15.22C48.78 15.0867 48.84 14.9133 48.84 14.7V13.42C48.84 13.1933 48.78 13.02 48.66 12.9C48.54 12.78 48.3667 12.72 48.14 12.72H47.22C47.0067 12.72 46.84 12.78 46.72 12.9C46.6 13.02 46.54 13.1933 46.54 13.42V14.7ZM54.4 15.6C54.28 15.6 54.1867 15.56 54.12 15.48C54.0533 15.4 54.02 15.3067 54.02 15.2C54.02 15.08 54.0533 14.98 54.12 14.9C54.2 14.82 54.3067 14.7867 54.44 14.8C55.4667 14.8667 57.84 14.9 61.56 14.9C61.76 14.9 61.98 14.78 62.22 14.54C62.42 14.34 62.5867 14.24 62.72 14.24C62.9467 14.2267 63.1733 14.2867 63.4 14.42C63.64 14.54 63.84 14.6867 64 14.86C64.16 15.02 64.24 15.1533 64.24 15.26C64.24 15.34 64.2133 15.4 64.16 15.44C64.12 15.48 64.0333 15.5333 63.9 15.6C63.5933 15.7467 63.3733 15.9333 63.24 16.16C62.8533 16.76 62.38 17.36 61.82 17.96C61.26 18.56 60.6867 19.0933 60.1 19.56C60.0067 19.64 59.9133 19.68 59.82 19.68C59.6867 19.68 59.62 19.6133 59.62 19.48C59.62 19.3067 59.7333 19.1267 59.96 18.94C60.5467 18.4067 61.1 17.5267 61.62 16.3C61.6733 16.1933 61.7 16.08 61.7 15.96C61.7 15.8133 61.64 15.7 61.52 15.62C61.4133 15.5267 61.26 15.48 61.06 15.48C60.82 15.4933 60.4133 15.5 59.84 15.5C59.36 15.5 59.12 15.7333 59.12 16.2V24.72C59.12 25.2667 58.9867 25.66 58.72 25.9C58.4533 26.1533 58.1 26.28 57.66 26.28C57.5133 26.28 57.4133 26.2467 57.36 26.18C57.32 26.1133 57.28 26.0067 57.24 25.86C57.2 25.6867 57.1333 25.5333 57.04 25.4C56.9467 25.2667 56.7733 25.16 56.52 25.08C55.84 24.88 55.2067 24.72 54.62 24.6C54.34 24.5467 54.2 24.4333 54.2 24.26C54.2 24.18 54.24 24.1133 54.32 24.06C54.4 24.0067 54.5 23.9867 54.62 24L55.16 24.1C55.8933 24.2467 56.4533 24.32 56.84 24.32C57.1867 24.32 57.44 24.24 57.6 24.08C57.76 23.92 57.84 23.6733 57.84 23.34V16.22C57.84 15.9933 57.78 15.82 57.66 15.7C57.54 15.58 57.3667 15.52 57.14 15.52H56.54C56.2333 15.52 55.68 15.54 54.88 15.58C54.7333 15.5933 54.5733 15.6 54.4 15.6ZM74.92 25.56C76.4267 24.36 77.48 22.7533 78.08 20.74C78.6933 18.7267 79.04 16.48 79.12 14C79.1333 13.7733 79.08 13.6 78.96 13.48C78.84 13.36 78.6733 13.3 78.46 13.3C78.1933 13.3 77.66 13.3333 76.86 13.4C76.7267 13.4133 76.62 13.38 76.54 13.3C76.4733 13.2067 76.44 13.1067 76.44 13C76.44 12.88 76.4733 12.78 76.54 12.7C76.62 12.62 76.7267 12.5867 76.86 12.6L78.44 12.7C78.6667 12.7133 78.84 12.66 78.96 12.54C79.08 12.4067 79.14 12.2267 79.14 12V11.6C79.1133 10.2667 79.1 9.4 79.1 9C79.1 8.66667 79.1933 8.42 79.38 8.26C79.58 8.08667 79.8267 8 80.12 8C80.36 8 80.56 8.04667 80.72 8.14C80.88 8.23333 80.96 8.32667 80.96 8.42C80.96 8.52667 80.8533 8.58667 80.64 8.6C80.56 8.61333 80.4933 8.66 80.44 8.74C80.4 8.82 80.38 8.90667 80.38 9V11.02V12.02C80.38 12.2467 80.44 12.42 80.56 12.54C80.68 12.66 80.8533 12.72 81.08 12.72H81.34C81.46 12.72 81.5667 12.7 81.66 12.66C81.7533 12.6067 81.8667 12.5333 82 12.44C82.2267 12.2667 82.4067 12.18 82.54 12.18C82.6867 12.18 82.8733 12.2467 83.1 12.38C83.34 12.5133 83.5467 12.6667 83.72 12.84C83.8933 13 83.98 13.1333 83.98 13.24C83.98 13.3333 83.96 13.4067 83.92 13.46C83.88 13.5 83.82 13.5533 83.74 13.62C83.6333 13.7 83.5467 13.7867 83.48 13.88C83.4267 13.9733 83.4 14.1133 83.4 14.3C83.3867 16.4333 83.3533 18.1067 83.3 19.32C83.2467 20.5333 83.1133 21.6667 82.9 22.72C82.6867 23.7733 82.3533 24.6133 81.9 25.24C81.7133 25.5067 81.5067 25.7133 81.28 25.86C81.0667 26.0067 80.8667 26.08 80.68 26.08C80.52 26.08 80.38 26.0267 80.26 25.92C80.14 25.8267 80.0533 25.68 80 25.48C79.92 25.2267 79.7667 25.0133 79.54 24.84C79.3267 24.6533 79.1267 24.5067 78.94 24.4C78.7533 24.2933 78.6333 24.2267 78.58 24.2C78.38 24.0933 78.28 23.96 78.28 23.8C78.28 23.72 78.3067 23.6533 78.36 23.6C78.4133 23.5333 78.4867 23.5 78.58 23.5C78.62 23.5 78.68 23.5133 78.76 23.54C78.84 23.5667 78.94 23.6133 79.06 23.68C79.1933 23.7467 79.2867 23.7933 79.34 23.82C79.5533 23.94 79.7267 24.0333 79.86 24.1C80.0067 24.1533 80.1467 24.18 80.28 24.18C80.48 24.18 80.6533 24.1 80.8 23.94C81.2933 23.3667 81.6333 22.2667 81.82 20.64C82.0067 19.0133 82.1067 16.7933 82.12 13.98C82.12 13.7533 82.06 13.58 81.94 13.46C81.82 13.34 81.6467 13.28 81.42 13.28H81.06C80.6067 13.28 80.3667 13.5133 80.34 13.98C80.2733 15.7667 80.0933 17.3733 79.8 18.8C79.52 20.2133 79.0133 21.5467 78.28 22.8C77.56 24.0533 76.5467 25.1467 75.24 26.08C75.1067 26.1733 74.9867 26.22 74.88 26.22C74.8133 26.22 74.7533 26.2 74.7 26.16C74.66 26.12 74.64 26.0667 74.64 26C74.64 25.8533 74.7333 25.7067 74.92 25.56ZM71.18 17.3C71.0467 17.3133 70.94 17.28 70.86 17.2C70.7933 17.1067 70.76 17.0067 70.76 16.9C70.76 16.78 70.7933 16.68 70.86 16.6C70.94 16.52 71.0467 16.4867 71.18 16.5L71.94 16.56C72.2333 16.5867 72.4067 16.6 72.46 16.6C72.6733 16.6 72.8333 16.54 72.94 16.42C73.06 16.3 73.12 16.1267 73.12 15.9V11.1C73.12 10.8867 73.0667 10.72 72.96 10.6C72.8533 10.4667 72.7 10.4 72.5 10.4C72.4467 10.4 72.3 10.4133 72.06 10.44C71.4733 10.4933 71.18 10.52 71.18 10.52C71.0467 10.5333 70.94 10.5 70.86 10.42C70.7933 10.3267 70.76 10.2267 70.76 10.12C70.76 10 70.7933 9.9 70.86 9.82C70.94 9.74 71.0467 9.70667 71.18 9.72L72.24 9.8C72.7733 9.82667 73.0933 9.84 73.2 9.84H73.88C74.1467 9.84 74.3667 9.78667 74.54 9.68C74.7267 9.56 74.92 9.4 75.12 9.2C75.4133 8.90667 75.7067 8.76 76 8.76C76.3333 8.76 76.7 8.97333 77.1 9.4C77.2467 9.57333 77.32 9.74 77.32 9.9C77.32 10.0467 77.26 10.1667 77.14 10.26C77.02 10.3533 76.8467 10.4 76.62 10.4L75.1 10.42C74.8867 10.42 74.7133 10.48 74.58 10.6C74.46 10.72 74.4 10.8933 74.4 11.12V15.46C74.4 15.74 74.44 15.9667 74.52 16.14C74.6 16.3133 74.6867 16.36 74.78 16.28C74.8733 16.2133 74.9867 16.1133 75.12 15.98C75.4133 15.6867 75.7067 15.54 76 15.54C76.3333 15.54 76.7 15.7533 77.1 16.18C77.2467 16.3533 77.32 16.52 77.32 16.68C77.32 16.8267 77.26 16.9467 77.14 17.04C77.02 17.1333 76.8467 17.18 76.62 17.18L75.1 17.2C74.8867 17.2 74.7133 17.26 74.58 17.38C74.46 17.5 74.4 17.6733 74.4 17.9V21.64C74.4 21.8267 74.44 21.98 74.52 22.1C74.6 22.2067 74.7067 22.26 74.84 22.26C74.9733 22.26 75.1067 22.2133 75.24 22.12C75.64 21.88 76.1 21.5667 76.62 21.18C76.7133 21.1133 76.7933 21.08 76.86 21.08C76.9267 21.08 76.98 21.1067 77.02 21.16C77.0733 21.2133 77.1 21.2733 77.1 21.34C77.1 21.4467 77.0467 21.5533 76.94 21.66C75.4067 23.0467 73.9333 24.1133 72.52 24.86C72.3333 24.9667 72.2067 25.0533 72.14 25.12C72.0867 25.1867 72.0867 25.2667 72.14 25.36C72.1667 25.4 72.18 25.4533 72.18 25.52C72.18 25.6533 72.1133 25.72 71.98 25.72C71.9533 25.72 71.8867 25.7067 71.78 25.68C71.5 25.5733 71.2867 25.4267 71.14 25.24C70.9933 25.0667 70.92 24.88 70.92 24.68C70.92 24.48 71 24.2933 71.16 24.12C71.32 23.9333 71.54 23.7933 71.82 23.7C72.1 23.62 72.3533 23.5333 72.58 23.44C72.94 23.2933 73.12 23.0267 73.12 22.64V17.88C73.12 17.4133 72.9733 17.18 72.68 17.18C72.6133 17.18 72.4067 17.1933 72.06 17.22C71.58 17.2733 71.2867 17.3 71.18 17.3ZM84.54 12.22C84.54 12.0733 84.64 12 84.84 12C85.08 12 85.2733 12.0333 85.42 12.1C85.58 12.1667 85.74 12.2533 85.9 12.36C86.06 12.4667 86.1733 12.52 86.24 12.52H87.46C87.58 12.52 87.6933 12.4933 87.8 12.44C87.92 12.3733 88.0267 12.3 88.12 12.22C88.2 12.1533 88.2867 12.0933 88.38 12.04C88.4733 11.9733 88.5667 11.94 88.66 11.94C88.8733 11.94 89.0867 12.0067 89.3 12.14C89.5267 12.2733 89.7133 12.4267 89.86 12.6C90.02 12.7733 90.1 12.9133 90.1 13.02C90.1 13.1133 90.08 13.1867 90.04 13.24C90 13.28 89.94 13.3333 89.86 13.4C89.7533 13.48 89.6667 13.5667 89.6 13.66C89.5467 13.7533 89.52 13.8933 89.52 14.08V24.86C89.52 25.1133 89.4267 25.3133 89.24 25.46C89.0533 25.6067 88.8467 25.68 88.62 25.68C88.42 25.68 88.2933 25.5933 88.24 25.42C88.2 25.26 88.18 24.94 88.18 24.46C88.18 24.22 88.12 24.0333 88 23.9C87.88 23.7533 87.7067 23.68 87.48 23.68H86.52C86.2933 23.68 86.12 23.7333 86 23.84C85.88 23.9333 85.82 24.0733 85.82 24.26C85.82 24.7667 85.7333 25.1267 85.56 25.34C85.3867 25.5667 85.18 25.68 84.94 25.68C84.6733 25.68 84.54 25.5267 84.54 25.22V12.22ZM85.82 22.42C85.82 22.6333 85.88 22.8067 86 22.94C86.1333 23.06 86.3067 23.12 86.52 23.12L87.54 23.14C87.7667 23.14 87.94 23.08 88.06 22.96C88.18 22.8267 88.24 22.6533 88.24 22.44V13.76C88.24 13.5333 88.18 13.36 88.06 13.24C87.94 13.12 87.7667 13.06 87.54 13.06H86.52C86.3067 13.06 86.1333 13.12 86 13.24C85.88 13.36 85.82 13.5333 85.82 13.76V22.42ZM111.64 25.7C111.64 25.94 111.547 26.1333 111.36 26.28C111.187 26.44 111 26.52 110.8 26.52C110.667 26.52 110.553 26.4733 110.46 26.38C110.38 26.3 110.347 26.18 110.36 26.02V8.92C110.36 8.58667 110.453 8.34 110.64 8.18C110.84 8.00667 111.087 7.92 111.38 7.92C111.62 7.92 111.82 7.96667 111.98 8.06C112.14 8.15333 112.22 8.24667 112.22 8.34C112.22 8.44667 112.113 8.50667 111.9 8.52C111.82 8.53333 111.753 8.58 111.7 8.66C111.66 8.74 111.64 8.82667 111.64 8.92V11.38C111.64 11.5933 111.7 11.7667 111.82 11.9C111.953 12.02 112.127 12.08 112.34 12.08H112.78C113.047 12.08 113.267 12.0267 113.44 11.92C113.627 11.8 113.82 11.64 114.02 11.44C114.313 11.1467 114.613 11 114.92 11C115.093 11 115.267 11.0533 115.44 11.16C115.64 11.2933 115.827 11.4533 116 11.64C116.147 11.8133 116.22 11.98 116.22 12.14C116.22 12.2867 116.16 12.4067 116.04 12.5C115.92 12.5933 115.747 12.64 115.52 12.64L112.34 12.66C112.113 12.66 111.94 12.72 111.82 12.84C111.7 12.96 111.64 13.1267 111.64 13.34V15.6C111.64 15.8133 111.7 15.9867 111.82 16.12C111.953 16.24 112.127 16.3 112.34 16.3C112.633 16.3 112.867 16.2467 113.04 16.14C113.227 16.02 113.42 15.86 113.62 15.66C113.913 15.3667 114.213 15.22 114.52 15.22C114.693 15.22 114.867 15.2733 115.04 15.38C115.24 15.5133 115.427 15.6733 115.6 15.86C115.747 16.0333 115.82 16.2 115.82 16.36C115.82 16.5067 115.76 16.6267 115.64 16.72C115.52 16.8133 115.347 16.86 115.12 16.86L112.34 16.88C111.873 16.8533 111.64 17.08 111.64 17.56V19.66C111.64 19.8733 111.7 20.0467 111.82 20.18C111.953 20.3 112.127 20.36 112.34 20.36H112.78C113.047 20.36 113.267 20.3067 113.44 20.2C113.627 20.08 113.82 19.92 114.02 19.72C114.313 19.4267 114.613 19.28 114.92 19.28C115.093 19.28 115.267 19.3333 115.44 19.44C115.64 19.5733 115.827 19.7333 116 19.92C116.147 20.0933 116.22 20.26 116.22 20.42C116.22 20.5667 116.16 20.6867 116.04 20.78C115.92 20.8733 115.747 20.92 115.52 20.92L112.34 20.94C112.113 20.94 111.94 21 111.82 21.12C111.7 21.24 111.64 21.4067 111.64 21.62V25.7ZM104.12 23.32C103.92 23.2533 103.753 23.1333 103.62 22.96C103.487 22.7733 103.42 22.58 103.42 22.38C103.42 21.9933 103.673 21.72 104.18 21.56C105.22 21.24 106.06 20.9467 106.7 20.68C106.873 20.6 107.007 20.5 107.1 20.38C107.193 20.26 107.253 20.1067 107.28 19.92C107.347 19.3733 107.42 18.6 107.5 17.6C107.527 17.12 107.293 16.88 106.8 16.88C106.293 16.88 105.833 16.8933 105.42 16.92C105.02 16.9467 104.753 16.9667 104.62 16.98C104.487 16.9933 104.38 16.96 104.3 16.88C104.233 16.7867 104.2 16.6867 104.2 16.58C104.2 16.46 104.233 16.36 104.3 16.28C104.38 16.2 104.487 16.1667 104.62 16.18C105.647 16.2467 106.393 16.2867 106.86 16.3C107.313 16.3 107.553 16.0667 107.58 15.6C107.593 15.12 107.6 14.3733 107.6 13.36C107.6 12.9067 107.367 12.6667 106.9 12.64C106.353 12.64 105.713 12.6667 104.98 12.72L104.42 12.76C104.287 12.7733 104.18 12.74 104.1 12.66C104.033 12.5667 104 12.4667 104 12.36C104 12.24 104.033 12.14 104.1 12.06C104.18 11.98 104.287 11.9467 104.42 11.96L104.86 11.98C105.953 12.0467 106.633 12.08 106.9 12.08C107.127 12.08 107.3 12.02 107.42 11.9C107.54 11.7667 107.6 11.5933 107.6 11.38V9.08C107.6 8.76 107.7 8.52 107.9 8.36C108.113 8.18667 108.367 8.1 108.66 8.1C109.007 8.1 109.273 8.21333 109.46 8.44C109.5 8.48 109.52 8.52667 109.52 8.58C109.52 8.7 109.467 8.76 109.36 8.76C109.213 8.76 109.1 8.78667 109.02 8.84C108.953 8.88 108.92 8.99333 108.92 9.18L108.94 13.32C108.94 15.5867 108.867 17.38 108.72 18.7L108.7 18.94C108.7 19.1667 108.733 19.3267 108.8 19.42C108.867 19.5133 108.96 19.5267 109.08 19.46L109.56 19.16C109.627 19.1067 109.7 19.08 109.78 19.08C109.887 19.08 109.94 19.14 109.94 19.26C109.94 19.38 109.873 19.5 109.74 19.62L108.8 20.34C108.573 20.5 108.407 20.76 108.3 21.12C107.993 22.28 107.54 23.3 106.94 24.18C106.353 25.06 105.567 25.8067 104.58 26.42C104.487 26.4867 104.387 26.52 104.28 26.52C104.227 26.52 104.18 26.5 104.14 26.46C104.1 26.4333 104.08 26.3933 104.08 26.34C104.08 26.22 104.147 26.1133 104.28 26.02C105.427 25.1133 106.253 23.8467 106.76 22.22C106.773 22.1933 106.78 22.1533 106.78 22.1C106.78 21.9667 106.727 21.9 106.62 21.9C106.567 21.9 106.507 21.92 106.44 21.96C106.04 22.1867 105.52 22.44 104.88 22.72C104.813 22.7467 104.72 22.7867 104.6 22.84C104.493 22.88 104.427 22.92 104.4 22.96C104.373 22.9867 104.373 23.0267 104.4 23.08C104.413 23.1067 104.42 23.1467 104.42 23.2C104.42 23.2667 104.393 23.3133 104.34 23.34C104.287 23.3533 104.213 23.3467 104.12 23.32ZM97.18 17.2C97.0467 17.2133 96.94 17.18 96.86 17.1C96.7933 17.0067 96.76 16.9067 96.76 16.8C96.76 16.68 96.7933 16.58 96.86 16.5C96.94 16.42 97.0467 16.3867 97.18 16.4L98.04 16.46C98.3067 16.4867 98.4733 16.5 98.54 16.5C98.98 16.5 99.2 16.2667 99.2 15.8V11.32C99.2 11.1067 99.1467 10.94 99.04 10.82C98.9333 10.7 98.78 10.64 98.58 10.64C98.5267 10.64 98.3533 10.6533 98.06 10.68L97.18 10.74C97.0467 10.7533 96.94 10.72 96.86 10.64C96.7933 10.5467 96.76 10.4467 96.76 10.34C96.76 10.22 96.7933 10.12 96.86 10.04C96.94 9.96 97.0467 9.92667 97.18 9.94L98.24 10.02C98.7733 10.0467 99.0933 10.06 99.2 10.06H100.02C100.287 10.06 100.507 10.0067 100.68 9.9C100.867 9.78 101.06 9.62 101.26 9.42C101.553 9.12667 101.847 8.98 102.14 8.98C102.473 8.98 102.84 9.19333 103.24 9.62C103.387 9.79333 103.46 9.96 103.46 10.12C103.46 10.2667 103.4 10.3867 103.28 10.48C103.16 10.5733 102.987 10.62 102.76 10.62L101.18 10.64C100.967 10.64 100.793 10.7 100.66 10.82C100.54 10.94 100.48 11.1133 100.48 11.34V15.4C100.48 15.6933 100.52 15.92 100.6 16.08C100.693 16.24 100.793 16.28 100.9 16.2C100.993 16.1333 101.113 16.0267 101.26 15.88C101.553 15.5867 101.847 15.44 102.14 15.44C102.473 15.44 102.84 15.6533 103.24 16.08C103.387 16.2533 103.46 16.42 103.46 16.58C103.46 16.7267 103.4 16.8467 103.28 16.94C103.16 17.0333 102.987 17.08 102.76 17.08L101.18 17.1C100.967 17.1 100.793 17.16 100.66 17.28C100.54 17.4 100.48 17.5733 100.48 17.8V22.22C100.48 22.4067 100.52 22.56 100.6 22.68C100.68 22.7867 100.787 22.84 100.92 22.84C101.027 22.84 101.16 22.7933 101.32 22.7C101.653 22.5133 102.133 22.1933 102.76 21.74C102.853 21.6733 102.933 21.64 103 21.64C103.067 21.64 103.12 21.6667 103.16 21.72C103.2 21.7733 103.22 21.8333 103.22 21.9C103.22 22.02 103.173 22.1267 103.08 22.22C101.52 23.6067 100 24.6733 98.52 25.42C98.32 25.5133 98.1933 25.5933 98.14 25.66C98.0867 25.74 98.0867 25.8267 98.14 25.92C98.1667 25.96 98.18 26.0133 98.18 26.08C98.18 26.2133 98.1133 26.28 97.98 26.28C97.9533 26.28 97.8867 26.2667 97.78 26.24C97.5 26.1333 97.2867 25.9867 97.14 25.8C96.9933 25.6267 96.92 25.44 96.92 25.24C96.92 25.0267 96.9933 24.8333 97.14 24.66C97.3 24.4867 97.5267 24.3533 97.82 24.26C97.94 24.22 98.2133 24.1267 98.64 23.98C99.0133 23.86 99.2 23.5933 99.2 23.18V17.78C99.2 17.3133 99.0533 17.08 98.76 17.08C98.6667 17.08 98.4467 17.0933 98.1 17.12C97.54 17.1733 97.2333 17.2 97.18 17.2ZM123.64 25.72C124.6 24.68 125.26 23.0867 125.62 20.94C125.98 18.78 126.16 16.4733 126.16 14.02C126.16 13.2467 126.147 12.5467 126.12 11.92C126.093 11.2933 126.08 10.9067 126.08 10.76L126.06 10.34C126.06 10.1933 126.16 10.12 126.36 10.12C126.76 10.12 127.04 10.2867 127.2 10.62C127.28 10.78 127.393 10.86 127.54 10.86H132.28C132.507 10.86 132.68 10.8 132.8 10.68C132.92 10.5467 132.98 10.3733 132.98 10.16V9.02C132.98 8.68667 133.073 8.44 133.26 8.28C133.46 8.10667 133.707 8.02 134 8.02C134.24 8.02 134.44 8.06667 134.6 8.16C134.76 8.25333 134.84 8.34667 134.84 8.44C134.84 8.54667 134.733 8.60667 134.52 8.62C134.44 8.63333 134.373 8.68 134.32 8.76C134.28 8.84 134.26 8.92667 134.26 9.02V10.16C134.26 10.3733 134.32 10.5467 134.44 10.68C134.573 10.8 134.747 10.86 134.96 10.86H138.32C138.587 10.86 138.807 10.8067 138.98 10.7C139.167 10.58 139.36 10.42 139.56 10.22C139.853 9.92667 140.153 9.78 140.46 9.78C140.633 9.78 140.807 9.83333 140.98 9.94C141.18 10.0733 141.367 10.2333 141.54 10.42C141.687 10.5933 141.76 10.76 141.76 10.92C141.76 11.0667 141.7 11.1867 141.58 11.28C141.46 11.3733 141.287 11.42 141.06 11.42H128.04C127.813 11.42 127.64 11.48 127.52 11.6C127.4 11.72 127.34 11.8933 127.34 12.12V13.34C127.34 15.2733 127.267 16.98 127.12 18.46C126.987 19.94 126.673 21.3733 126.18 22.76C125.687 24.1467 124.953 25.3267 123.98 26.3C123.807 26.4467 123.673 26.52 123.58 26.52C123.433 26.52 123.36 26.44 123.36 26.28C123.36 26.1067 123.453 25.92 123.64 25.72ZM128.78 19.04C128.78 18.8933 128.88 18.82 129.08 18.82C129.32 18.82 129.513 18.8533 129.66 18.92C129.82 18.9867 129.98 19.0733 130.14 19.18C130.3 19.2867 130.413 19.34 130.48 19.34H132.18C132.407 19.34 132.58 19.28 132.7 19.16C132.82 19.0267 132.88 18.8533 132.88 18.64V13.4C132.88 13.0667 132.973 12.82 133.16 12.66C133.36 12.4867 133.607 12.4 133.9 12.4C134.14 12.4 134.34 12.4467 134.5 12.54C134.66 12.6333 134.74 12.7267 134.74 12.82C134.74 12.9267 134.633 12.9867 134.42 13C134.34 13.0133 134.273 13.06 134.22 13.14C134.18 13.22 134.16 13.3067 134.16 13.4V15.02C134.16 15.2333 134.22 15.4067 134.34 15.54C134.473 15.66 134.647 15.72 134.86 15.72H137.24C137.507 15.72 137.727 15.6667 137.9 15.56C138.087 15.44 138.28 15.28 138.48 15.08C138.773 14.7867 139.073 14.64 139.38 14.64C139.553 14.64 139.727 14.6933 139.9 14.8C140.1 14.9333 140.287 15.0933 140.46 15.28C140.607 15.4533 140.68 15.62 140.68 15.78C140.68 15.9267 140.62 16.0467 140.5 16.14C140.38 16.2333 140.207 16.28 139.98 16.28L137.24 16.3L134.86 16.28C134.647 16.28 134.473 16.34 134.34 16.46C134.22 16.58 134.16 16.7533 134.16 16.98V18.64C134.16 18.8533 134.22 19.0267 134.34 19.16C134.473 19.28 134.647 19.34 134.86 19.34H136.98C137.1 19.34 137.213 19.3133 137.32 19.26C137.44 19.1933 137.547 19.12 137.64 19.04C137.72 18.9733 137.807 18.9133 137.9 18.86C137.993 18.7933 138.087 18.76 138.18 18.76C138.393 18.76 138.607 18.8267 138.82 18.96C139.047 19.0933 139.233 19.2467 139.38 19.42C139.54 19.5933 139.62 19.7333 139.62 19.84C139.62 19.9333 139.6 20.0067 139.56 20.06C139.52 20.1 139.46 20.1533 139.38 20.22C139.273 20.3 139.187 20.3867 139.12 20.48C139.067 20.5733 139.04 20.7133 139.04 20.9V25.72C139.04 25.9733 138.947 26.1733 138.76 26.32C138.573 26.4667 138.367 26.54 138.14 26.54C137.953 26.54 137.833 26.48 137.78 26.36C137.727 26.2533 137.7 26.1067 137.7 25.92C137.7 25.68 137.64 25.4867 137.52 25.34C137.4 25.2067 137.227 25.14 137 25.14H130.76C130.533 25.14 130.36 25.1867 130.24 25.28C130.12 25.3867 130.06 25.5333 130.06 25.72C130.06 25.96 129.967 26.1533 129.78 26.3C129.593 26.46 129.393 26.54 129.18 26.54C128.913 26.54 128.78 26.3867 128.78 26.08V19.04ZM130.06 23.88C130.06 24.0933 130.12 24.2667 130.24 24.4C130.373 24.52 130.547 24.58 130.76 24.58L137.06 24.6C137.287 24.6 137.46 24.54 137.58 24.42C137.7 24.2867 137.76 24.1133 137.76 23.9V20.58C137.76 20.3533 137.7 20.18 137.58 20.06C137.46 19.94 137.287 19.88 137.06 19.88H130.76C130.547 19.88 130.373 19.94 130.24 20.06C130.12 20.18 130.06 20.3533 130.06 20.58V23.88Z" fill="#655560"/>
<path d="M21.98 50.988C21.988 50.86 21.992 50.7 21.992 50.508L22.004 42.384C22.004 42.296 22.064 42.252 22.184 42.252C22.328 42.252 22.444 42.272 22.532 42.312C22.628 42.352 22.724 42.404 22.82 42.468C22.916 42.532 22.984 42.564 23.024 42.564H24.116C24.284 42.564 24.4 42.492 24.464 42.348C24.68 41.9 24.844 41.492 24.956 41.124C24.988 41.004 25.056 40.912 25.16 40.848C25.264 40.776 25.376 40.74 25.496 40.74C25.704 40.74 25.868 40.824 25.988 40.992C26.028 41.056 26.048 41.104 26.048 41.136C26.048 41.224 25.988 41.248 25.868 41.208C25.852 41.2 25.832 41.196 25.808 41.196C25.736 41.196 25.676 41.24 25.628 41.328C25.508 41.56 25.32 41.852 25.064 42.204C25.008 42.284 24.98 42.348 24.98 42.396C24.98 42.444 25.004 42.484 25.052 42.516C25.1 42.548 25.164 42.564 25.244 42.564H27.236C27.308 42.564 27.376 42.548 27.44 42.516C27.512 42.476 27.576 42.432 27.632 42.384C27.68 42.344 27.732 42.308 27.788 42.276C27.844 42.236 27.9 42.216 27.956 42.216C28.1 42.216 28.28 42.284 28.496 42.42C28.712 42.548 28.82 42.66 28.82 42.756C28.82 42.852 28.772 42.94 28.676 43.02C28.612 43.092 28.56 43.164 28.52 43.236C28.488 43.3 28.472 43.388 28.472 43.5V51.432C28.472 51.584 28.416 51.704 28.304 51.792C28.192 51.88 28.068 51.924 27.932 51.924C27.812 51.924 27.736 51.876 27.704 51.78C27.68 51.692 27.668 51.516 27.668 51.252C27.668 51.108 27.632 50.996 27.56 50.916C27.488 50.828 27.384 50.784 27.248 50.784H23.192C23.056 50.784 22.952 50.816 22.88 50.88C22.808 50.936 22.772 51.02 22.772 51.132C22.772 51.404 22.72 51.604 22.616 51.732C22.512 51.86 22.388 51.924 22.244 51.924C22.164 51.924 22.096 51.9 22.04 51.852C21.992 51.804 21.968 51.736 21.968 51.648L21.98 50.988ZM22.772 44.868C22.772 44.996 22.808 45.1 22.88 45.18C22.96 45.252 23.064 45.288 23.192 45.288H27.284C27.42 45.288 27.524 45.252 27.596 45.18C27.668 45.1 27.704 44.996 27.704 44.868V43.308C27.704 43.172 27.668 43.068 27.596 42.996C27.524 42.924 27.42 42.888 27.284 42.888H23.192C23.064 42.888 22.96 42.924 22.88 42.996C22.808 43.068 22.772 43.172 22.772 43.308V44.868ZM22.772 47.328C22.772 47.456 22.808 47.56 22.88 47.64C22.96 47.712 23.064 47.748 23.192 47.748H27.284C27.42 47.748 27.524 47.712 27.596 47.64C27.668 47.56 27.704 47.456 27.704 47.328V46.068C27.704 45.932 27.668 45.828 27.596 45.756C27.524 45.684 27.42 45.648 27.284 45.648H23.192C23.064 45.648 22.96 45.684 22.88 45.756C22.808 45.828 22.772 45.932 22.772 46.068V47.328ZM22.772 50.028C22.772 50.156 22.808 50.26 22.88 50.34C22.96 50.412 23.064 50.448 23.192 50.448L27.284 50.46C27.42 50.46 27.524 50.424 27.596 50.352C27.668 50.272 27.704 50.168 27.704 50.04V48.528C27.704 48.392 27.668 48.288 27.596 48.216C27.524 48.144 27.42 48.108 27.284 48.108H23.192C23.064 48.108 22.96 48.144 22.88 48.216C22.808 48.288 22.772 48.392 22.772 48.528V50.028ZM35.312 43.692C35.312 43.548 35.404 43.4 35.588 43.248C35.78 43.088 35.912 42.912 35.984 42.72C36.056 42.52 36.108 42.296 36.14 42.048C36.148 42 36.168 41.96 36.2 41.928C36.24 41.896 36.284 41.88 36.332 41.88C36.38 41.88 36.42 41.896 36.452 41.928C36.468 41.944 36.484 41.976 36.5 42.024C36.524 42.064 36.548 42.096 36.572 42.12C36.604 42.136 36.652 42.144 36.716 42.144H40.376C40.536 42.144 40.616 42.064 40.616 41.904V41.304C40.616 41.104 40.672 40.956 40.784 40.86C40.904 40.756 41.052 40.704 41.228 40.704C41.372 40.704 41.492 40.732 41.588 40.788C41.684 40.844 41.732 40.9 41.732 40.956C41.732 41.02 41.668 41.056 41.54 41.064C41.492 41.072 41.452 41.1 41.42 41.148C41.396 41.196 41.384 41.248 41.384 41.304V41.904C41.384 42.064 41.464 42.144 41.624 42.144H45.104C45.232 42.144 45.324 42.14 45.38 42.132C45.436 42.116 45.496 42.076 45.56 42.012C45.632 41.94 45.716 41.904 45.812 41.904C45.876 41.904 45.956 41.928 46.052 41.976C46.244 42.08 46.388 42.2 46.484 42.336C46.58 42.472 46.628 42.592 46.628 42.696C46.628 42.784 46.596 42.848 46.532 42.888C46.468 42.92 46.396 42.944 46.316 42.96C46.244 42.976 46.196 42.988 46.172 42.996C46.02 43.036 45.876 43.1 45.74 43.188C45.612 43.268 45.452 43.388 45.26 43.548C45.132 43.668 45.032 43.744 44.96 43.776C44.912 43.8 44.872 43.812 44.84 43.812C44.768 43.812 44.732 43.78 44.732 43.716C44.732 43.676 44.748 43.64 44.78 43.608C45.02 43.368 45.18 43.148 45.26 42.948C45.284 42.884 45.296 42.824 45.296 42.768C45.296 42.68 45.26 42.608 45.188 42.552C45.116 42.496 45.024 42.468 44.912 42.468H36.884C36.756 42.468 36.656 42.512 36.584 42.6C36.512 42.688 36.46 42.82 36.428 42.996C36.372 43.292 36.28 43.536 36.152 43.728C36.024 43.912 35.856 44.004 35.648 44.004C35.552 44.004 35.472 43.976 35.408 43.92C35.344 43.856 35.312 43.78 35.312 43.692ZM35.828 50.256C36.284 50.12 36.796 49.908 37.364 49.62C37.932 49.324 38.46 48.996 38.948 48.636C39.436 48.276 39.8 47.932 40.04 47.604C40.136 47.476 40.236 47.408 40.34 47.4C40.396 47.384 40.432 47.364 40.448 47.34C40.472 47.316 40.476 47.28 40.46 47.232L40.388 46.992C40.34 46.864 40.268 46.8 40.172 46.8C40.116 46.8 40.052 46.824 39.98 46.872C39.428 47.264 38.764 47.64 37.988 48C37.212 48.36 36.588 48.592 36.116 48.696C36.084 48.704 36.044 48.708 35.996 48.708C35.876 48.708 35.816 48.668 35.816 48.588C35.816 48.548 35.836 48.508 35.876 48.468C35.924 48.42 35.984 48.384 36.056 48.36C36.712 48.144 37.376 47.82 38.048 47.388C38.72 46.956 39.3 46.504 39.788 46.032C39.836 45.992 39.86 45.948 39.86 45.9C39.86 45.86 39.844 45.824 39.812 45.792L39.74 45.684C39.708 45.628 39.66 45.6 39.596 45.6L39.5 45.624C38.588 46.056 37.476 46.416 36.164 46.704H36.116C36.076 46.704 36.04 46.692 36.008 46.668C35.984 46.644 35.972 46.612 35.972 46.572C35.972 46.532 35.988 46.496 36.02 46.464C36.052 46.424 36.1 46.396 36.164 46.38L36.404 46.308C37.132 46.1 37.796 45.872 38.396 45.624C38.996 45.376 39.596 45.016 40.196 44.544C40.284 44.48 40.328 44.412 40.328 44.34C40.328 44.292 40.304 44.252 40.256 44.22C40.216 44.188 40.156 44.172 40.076 44.172L38.648 44.16C38.328 44.16 37.94 44.176 37.484 44.208L37.196 44.232C37.116 44.24 37.052 44.22 37.004 44.172C36.964 44.116 36.944 44.056 36.944 43.992C36.944 43.92 36.964 43.86 37.004 43.812C37.052 43.764 37.116 43.744 37.196 43.752L37.484 43.776C37.988 43.808 38.376 43.824 38.648 43.824H42.5C42.66 43.824 42.792 43.792 42.896 43.728C43.008 43.656 43.124 43.56 43.244 43.44C43.42 43.264 43.596 43.176 43.772 43.176C43.972 43.176 44.192 43.304 44.432 43.56C44.52 43.664 44.564 43.764 44.564 43.86C44.564 43.948 44.528 44.02 44.456 44.076C44.384 44.132 44.28 44.16 44.144 44.16L41.972 44.172C41.828 44.172 41.708 44.216 41.612 44.304C41.532 44.368 41.492 44.448 41.492 44.544C41.492 44.568 41.5 44.612 41.516 44.676C41.748 45.508 42.092 46.308 42.548 47.076C42.612 47.172 42.692 47.22 42.788 47.22C42.86 47.22 42.92 47.2 42.968 47.16C43.736 46.616 44.364 46.016 44.852 45.36C44.964 45.208 45.108 45.132 45.284 45.132C45.444 45.132 45.584 45.196 45.704 45.324C45.832 45.452 45.896 45.6 45.896 45.768C45.896 45.944 45.856 46.032 45.776 46.032C45.736 46.032 45.696 46.008 45.656 45.96C45.632 45.936 45.612 45.924 45.596 45.924C45.572 45.924 45.524 45.948 45.452 45.996C44.828 46.5 44.076 46.992 43.196 47.472C43.084 47.536 43.028 47.612 43.028 47.7C43.028 47.756 43.052 47.816 43.1 47.88C43.604 48.536 44.16 49.096 44.768 49.56C45.384 50.016 46.012 50.364 46.652 50.604C46.7 50.62 46.74 50.644 46.772 50.676C46.804 50.708 46.82 50.736 46.82 50.76C46.82 50.8 46.8 50.832 46.76 50.856C46.728 50.88 46.68 50.892 46.616 50.892C46.44 50.892 46.288 50.928 46.16 51C46.032 51.072 45.956 51.164 45.932 51.276C45.908 51.396 45.852 51.456 45.764 51.456C45.732 51.456 45.692 51.444 45.644 51.42C44.676 50.884 43.78 50.088 42.956 49.032C42.132 47.976 41.52 46.664 41.12 45.096C41.088 44.952 41.02 44.88 40.916 44.88C40.86 44.88 40.8 44.904 40.736 44.952C40.56 45.064 40.424 45.144 40.328 45.192C40.224 45.256 40.172 45.328 40.172 45.408C40.172 45.464 40.204 45.532 40.268 45.612C40.66 46.052 40.964 46.58 41.18 47.196C41.396 47.804 41.504 48.42 41.504 49.044C41.504 49.804 41.348 50.48 41.036 51.072C40.86 51.4 40.688 51.636 40.52 51.78C40.352 51.932 40.152 52.008 39.92 52.008C39.832 52.008 39.776 51.992 39.752 51.96C39.728 51.936 39.712 51.888 39.704 51.816C39.688 51.72 39.656 51.632 39.608 51.552C39.56 51.48 39.472 51.404 39.344 51.324C39.192 51.236 38.96 51.128 38.648 51C38.432 50.912 38.26 50.832 38.132 50.76C38.044 50.704 38 50.636 38 50.556C38 50.508 38.016 50.468 38.048 50.436C38.088 50.404 38.132 50.388 38.18 50.388C38.22 50.388 38.264 50.4 38.312 50.424C38.496 50.512 38.708 50.6 38.948 50.688C39.196 50.768 39.404 50.808 39.572 50.808C39.772 50.808 39.928 50.776 40.04 50.712C40.16 50.648 40.276 50.532 40.388 50.364C40.596 50.044 40.7 49.568 40.7 48.936C40.7 48.832 40.692 48.66 40.676 48.42C40.668 48.324 40.632 48.276 40.568 48.276C40.528 48.276 40.488 48.292 40.448 48.324C39.808 48.836 39.136 49.276 38.432 49.644C37.736 50.012 36.892 50.328 35.9 50.592C35.868 50.6 35.828 50.604 35.78 50.604C35.724 50.604 35.68 50.592 35.648 50.568C35.616 50.544 35.6 50.512 35.6 50.472C35.6 50.376 35.676 50.304 35.828 50.256ZM50.984 51.372C51.496 50.996 51.884 50.524 52.148 49.956C52.42 49.38 52.6 48.728 52.688 48C52.784 47.272 52.832 46.392 52.832 45.36C52.832 44.992 52.824 44.392 52.808 43.56C52.792 42.632 52.784 41.904 52.784 41.376C52.784 41.176 52.84 41.028 52.952 40.932C53.072 40.828 53.22 40.776 53.396 40.776C53.54 40.776 53.66 40.804 53.756 40.86C53.852 40.916 53.9 40.972 53.9 41.028C53.9 41.092 53.836 41.128 53.708 41.136C53.66 41.144 53.62 41.172 53.588 41.22C53.564 41.268 53.552 41.32 53.552 41.376L53.576 44.136C53.576 44.184 53.584 44.224 53.6 44.256C53.624 44.28 53.648 44.292 53.672 44.292C53.72 44.292 53.76 44.264 53.792 44.208C53.872 44.088 53.992 43.88 54.152 43.584C54.208 43.48 54.284 43.4 54.38 43.344C54.476 43.28 54.58 43.248 54.692 43.248C54.892 43.248 55.048 43.316 55.16 43.452C55.272 43.58 55.328 43.708 55.328 43.836C55.328 43.868 55.32 43.9 55.304 43.932C55.296 43.956 55.272 43.968 55.232 43.968C55.192 43.968 55.156 43.952 55.124 43.92C55.084 43.88 55.036 43.86 54.98 43.86C54.884 43.86 54.772 43.924 54.644 44.052C54.42 44.292 54.148 44.556 53.828 44.844C53.668 44.98 53.588 45.152 53.588 45.36C53.588 45.864 53.56 46.444 53.504 47.1C53.496 47.18 53.504 47.248 53.528 47.304C53.552 47.36 53.592 47.42 53.648 47.484C53.976 47.828 54.296 48.28 54.608 48.84C54.928 49.4 55.088 49.84 55.088 50.16C55.088 50.304 55.052 50.412 54.98 50.484C54.916 50.556 54.836 50.592 54.74 50.592C54.628 50.592 54.524 50.552 54.428 50.472C54.34 50.384 54.284 50.272 54.26 50.136C54.188 49.696 54.004 49.148 53.708 48.492C53.66 48.38 53.592 48.324 53.504 48.324C53.456 48.324 53.408 48.348 53.36 48.396C53.32 48.436 53.292 48.492 53.276 48.564C53.116 49.236 52.868 49.828 52.532 50.34C52.204 50.852 51.756 51.304 51.188 51.696C51.108 51.752 51.032 51.78 50.96 51.78C50.912 51.78 50.872 51.768 50.84 51.744C50.808 51.72 50.792 51.688 50.792 51.648C50.792 51.56 50.856 51.468 50.984 51.372ZM56.912 43.176C56.592 43.176 56.204 43.192 55.748 43.224L55.46 43.248C55.38 43.256 55.316 43.236 55.268 43.188C55.228 43.132 55.208 43.072 55.208 43.008C55.208 42.936 55.228 42.876 55.268 42.828C55.316 42.78 55.38 42.76 55.46 42.768L55.748 42.792C56.252 42.824 56.64 42.84 56.912 42.84H57.476C57.612 42.84 57.716 42.804 57.788 42.732C57.86 42.652 57.896 42.548 57.896 42.42V41.388C57.896 41.188 57.952 41.04 58.064 40.944C58.184 40.84 58.332 40.788 58.508 40.788C58.652 40.788 58.772 40.816 58.868 40.872C58.964 40.928 59.012 40.984 59.012 41.04C59.012 41.104 58.948 41.14 58.82 41.148C58.772 41.156 58.732 41.184 58.7 41.232C58.676 41.28 58.664 41.332 58.664 41.388V42.42C58.664 42.548 58.7 42.652 58.772 42.732C58.852 42.804 58.956 42.84 59.084 42.84H59.684C59.844 42.84 59.976 42.808 60.08 42.744C60.192 42.672 60.308 42.576 60.428 42.456C60.604 42.28 60.784 42.192 60.968 42.192C61.072 42.192 61.176 42.224 61.28 42.288C61.4 42.368 61.512 42.464 61.616 42.576C61.704 42.68 61.748 42.78 61.748 42.876C61.748 42.964 61.712 43.036 61.64 43.092C61.568 43.148 61.464 43.176 61.328 43.176L59.684 43.188L56.912 43.176ZM51.404 45.864C51.516 45.648 51.6 45.312 51.656 44.856C51.72 44.392 51.752 43.956 51.752 43.548C51.752 43.396 51.744 43.248 51.728 43.104V43.08C51.728 43.04 51.744 43.008 51.776 42.984C51.808 42.96 51.844 42.948 51.884 42.948C51.956 42.948 52.008 42.988 52.04 43.068C52.104 43.244 52.156 43.508 52.196 43.86C52.236 44.212 52.256 44.576 52.256 44.952C52.256 45.304 52.236 45.616 52.196 45.888C52.156 46.152 52.092 46.336 52.004 46.44C51.908 46.56 51.8 46.62 51.68 46.62C51.584 46.62 51.5 46.576 51.428 46.488C51.364 46.392 51.332 46.284 51.332 46.164C51.332 46.06 51.356 45.96 51.404 45.864ZM56.6 43.704C56.552 43.656 56.528 43.608 56.528 43.56C56.528 43.496 56.564 43.464 56.636 43.464L56.732 43.488C56.892 43.544 57.056 43.68 57.224 43.896C57.4 44.104 57.548 44.336 57.668 44.592C57.788 44.84 57.848 45.028 57.848 45.156C57.848 45.324 57.808 45.456 57.728 45.552C57.656 45.64 57.568 45.684 57.464 45.684C57.4 45.684 57.344 45.668 57.296 45.636C57.248 45.596 57.22 45.544 57.212 45.48C57.1 44.968 57.004 44.58 56.924 44.316C56.844 44.044 56.736 43.84 56.6 43.704ZM56.204 46.176C55.884 46.176 55.496 46.192 55.04 46.224L54.752 46.248C54.672 46.256 54.608 46.236 54.56 46.188C54.52 46.132 54.5 46.072 54.5 46.008C54.5 45.936 54.52 45.876 54.56 45.828C54.608 45.78 54.672 45.76 54.752 45.768L55.04 45.792C55.544 45.824 55.932 45.84 56.204 45.84H58.304C58.472 45.84 58.588 45.768 58.652 45.624C58.916 45.064 59.124 44.492 59.276 43.908C59.356 43.62 59.536 43.476 59.816 43.476C59.936 43.476 60.052 43.508 60.164 43.572C60.276 43.628 60.364 43.704 60.428 43.8C60.46 43.84 60.476 43.884 60.476 43.932C60.476 43.972 60.46 44.004 60.428 44.028C60.404 44.052 60.376 44.056 60.344 44.04C60.192 43.968 60.044 44.068 59.9 44.34C59.668 44.772 59.44 45.152 59.216 45.48C59.168 45.552 59.144 45.612 59.144 45.66C59.144 45.716 59.164 45.76 59.204 45.792C59.252 45.824 59.316 45.84 59.396 45.84H60.404C60.564 45.84 60.696 45.808 60.8 45.744C60.912 45.672 61.028 45.576 61.148 45.456C61.324 45.28 61.504 45.192 61.688 45.192C61.792 45.192 61.896 45.224 62 45.288C62.12 45.368 62.232 45.464 62.336 45.576C62.424 45.68 62.468 45.78 62.468 45.876C62.468 45.964 62.432 46.036 62.36 46.092C62.288 46.148 62.184 46.176 62.048 46.176L60.404 46.188L56.204 46.176ZM55.928 47.004C55.928 46.916 55.988 46.872 56.108 46.872C56.252 46.872 56.368 46.892 56.456 46.932C56.552 46.972 56.648 47.024 56.744 47.088C56.84 47.152 56.908 47.184 56.948 47.184H59.348C59.42 47.184 59.488 47.168 59.552 47.136C59.624 47.096 59.688 47.052 59.744 47.004C59.792 46.964 59.844 46.928 59.9 46.896C59.956 46.856 60.012 46.836 60.068 46.836C60.196 46.836 60.324 46.876 60.452 46.956C60.588 47.036 60.7 47.128 60.788 47.232C60.884 47.336 60.932 47.42 60.932 47.484C60.932 47.54 60.92 47.584 60.896 47.616C60.872 47.64 60.836 47.672 60.788 47.712C60.724 47.76 60.672 47.812 60.632 47.868C60.6 47.924 60.584 48.008 60.584 48.12V51.228C60.584 51.38 60.528 51.5 60.416 51.588C60.304 51.676 60.18 51.72 60.044 51.72C59.932 51.72 59.86 51.684 59.828 51.612C59.796 51.548 59.78 51.46 59.78 51.348C59.78 51.204 59.744 51.088 59.672 51C59.6 50.92 59.496 50.88 59.36 50.88H57.116C56.98 50.88 56.876 50.912 56.804 50.976C56.732 51.032 56.696 51.116 56.696 51.228C56.696 51.372 56.64 51.488 56.528 51.576C56.416 51.672 56.296 51.72 56.168 51.72C56.008 51.72 55.928 51.628 55.928 51.444V47.004ZM56.696 50.124C56.696 50.252 56.732 50.356 56.804 50.436C56.884 50.508 56.988 50.544 57.116 50.544L59.396 50.556C59.532 50.556 59.636 50.52 59.708 50.448C59.78 50.368 59.816 50.264 59.816 50.136V47.928C59.816 47.792 59.78 47.688 59.708 47.616C59.636 47.544 59.532 47.508 59.396 47.508H57.116C56.988 47.508 56.884 47.544 56.804 47.616C56.732 47.688 56.696 47.792 56.696 47.928V50.124ZM70.124 41.112C70.092 41.08 70.076 41.048 70.076 41.016C70.076 40.976 70.092 40.944 70.124 40.92C70.156 40.888 70.196 40.872 70.244 40.872C70.268 40.872 70.304 40.88 70.352 40.896C70.624 41.008 70.9 41.172 71.18 41.388C71.46 41.596 71.62 41.808 71.66 42.024C71.668 42.048 71.672 42.084 71.672 42.132C71.672 42.252 71.636 42.344 71.564 42.408C71.492 42.464 71.404 42.492 71.3 42.492C71.212 42.492 71.128 42.472 71.048 42.432C70.968 42.384 70.904 42.316 70.856 42.228C70.72 41.956 70.6 41.736 70.496 41.568C70.392 41.4 70.268 41.248 70.124 41.112ZM68.624 42.984C68.304 42.984 67.916 43 67.46 43.032L67.172 43.056C67.092 43.064 67.028 43.044 66.98 42.996C66.94 42.94 66.92 42.88 66.92 42.816C66.92 42.744 66.94 42.684 66.98 42.636C67.028 42.588 67.092 42.568 67.172 42.576L67.46 42.6C67.964 42.632 68.352 42.648 68.624 42.648H72.488C72.648 42.648 72.768 42.588 72.848 42.468C73.096 42.124 73.332 41.728 73.556 41.28C73.628 41.144 73.716 41.044 73.82 40.98C73.924 40.908 74.036 40.872 74.156 40.872C74.292 40.872 74.416 40.912 74.528 40.992C74.648 41.072 74.74 41.184 74.804 41.328C74.836 41.424 74.852 41.48 74.852 41.496C74.852 41.56 74.832 41.6 74.792 41.616C74.76 41.632 74.724 41.62 74.684 41.58C74.644 41.54 74.588 41.536 74.516 41.568C74.452 41.6 74.356 41.68 74.228 41.808C74.068 41.968 73.888 42.128 73.688 42.288C73.6 42.36 73.556 42.428 73.556 42.492C73.556 42.596 73.64 42.648 73.808 42.648H75.536C75.696 42.648 75.828 42.616 75.932 42.552C76.044 42.48 76.16 42.384 76.28 42.264C76.456 42.088 76.636 42 76.82 42C76.924 42 77.028 42.032 77.132 42.096C77.252 42.176 77.364 42.272 77.468 42.384C77.556 42.488 77.6 42.588 77.6 42.684C77.6 42.772 77.564 42.844 77.492 42.9C77.42 42.956 77.316 42.984 77.18 42.984H68.624ZM68.96 48.492C68.96 48.636 68.904 48.756 68.792 48.852C68.688 48.94 68.576 48.984 68.456 48.984C68.376 48.984 68.308 48.96 68.252 48.912C68.204 48.856 68.184 48.78 68.192 48.684V43.512C68.192 43.424 68.252 43.38 68.372 43.38C68.532 43.38 68.676 43.444 68.804 43.572C68.876 43.644 68.952 43.68 69.032 43.68H70.976C71.048 43.672 71.112 43.652 71.168 43.62C71.232 43.58 71.3 43.528 71.372 43.464C71.492 43.344 71.592 43.284 71.672 43.284C71.8 43.276 71.932 43.308 72.068 43.38C72.212 43.444 72.332 43.528 72.428 43.632C72.524 43.728 72.576 43.808 72.584 43.872C72.592 43.928 72.584 43.972 72.56 44.004C72.536 44.028 72.496 44.064 72.44 44.112C72.368 44.176 72.312 44.236 72.272 44.292C72.24 44.34 72.224 44.42 72.224 44.532V47.856C72.224 48.192 72.124 48.452 71.924 48.636C71.724 48.82 71.492 48.912 71.228 48.912C71.148 48.912 71.096 48.896 71.072 48.864C71.048 48.824 71.032 48.764 71.024 48.684C71.016 48.572 70.992 48.484 70.952 48.42C70.912 48.348 70.82 48.292 70.676 48.252L70.34 48.18L69.992 48.108C69.848 48.076 69.776 48.012 69.776 47.916C69.776 47.86 69.8 47.816 69.848 47.784C69.904 47.752 69.968 47.74 70.04 47.748C70.104 47.756 70.184 47.772 70.28 47.796C70.384 47.812 70.524 47.828 70.7 47.844C70.924 47.86 71.104 47.82 71.24 47.724C71.384 47.62 71.456 47.468 71.456 47.268V44.436C71.456 44.3 71.42 44.196 71.348 44.124C71.276 44.052 71.172 44.016 71.036 44.016H69.38C69.252 44.016 69.148 44.052 69.068 44.124C68.996 44.196 68.96 44.3 68.96 44.436V48.492ZM73.184 47.832C73.128 47.816 73.084 47.788 73.052 47.748C73.02 47.708 73.004 47.664 73.004 47.616C73.004 47.56 73.028 47.516 73.076 47.484C73.124 47.444 73.188 47.432 73.268 47.448L73.544 47.532C74.16 47.716 74.556 47.816 74.732 47.832L74.852 47.844C75.18 47.844 75.344 47.656 75.344 47.28V43.92C75.344 43.72 75.4 43.572 75.512 43.476C75.632 43.372 75.78 43.32 75.956 43.32C76.1 43.32 76.22 43.348 76.316 43.404C76.412 43.46 76.46 43.516 76.46 43.572C76.46 43.636 76.396 43.672 76.268 43.68C76.22 43.688 76.18 43.716 76.148 43.764C76.124 43.812 76.112 43.864 76.112 43.92V48.108C76.112 48.428 75.996 48.664 75.764 48.816C75.54 48.968 75.284 49.044 74.996 49.044C74.908 49.044 74.848 49.024 74.816 48.984C74.784 48.936 74.752 48.86 74.72 48.756C74.672 48.62 74.62 48.512 74.564 48.432C74.516 48.352 74.42 48.284 74.276 48.228C74.244 48.212 74.14 48.172 73.964 48.108C73.58 47.964 73.32 47.872 73.184 47.832ZM73.436 44.16C73.436 43.96 73.492 43.812 73.604 43.716C73.724 43.612 73.872 43.56 74.048 43.56C74.192 43.56 74.312 43.588 74.408 43.644C74.504 43.7 74.552 43.756 74.552 43.812C74.552 43.876 74.488 43.912 74.36 43.92C74.312 43.928 74.272 43.956 74.24 44.004C74.216 44.052 74.204 44.104 74.204 44.16V46.656C74.204 46.8 74.148 46.92 74.036 47.016C73.932 47.104 73.82 47.148 73.7 47.148C73.62 47.148 73.552 47.124 73.496 47.076C73.448 47.02 73.428 46.944 73.436 46.848V44.16ZM69.188 44.88C69.132 44.856 69.104 44.816 69.104 44.76C69.104 44.712 69.124 44.672 69.164 44.64C69.204 44.608 69.256 44.592 69.32 44.592C69.592 44.6 69.952 44.664 70.4 44.784C70.848 44.904 71.116 45.04 71.204 45.192C71.26 45.28 71.288 45.364 71.288 45.444C71.288 45.548 71.244 45.632 71.156 45.696C71.076 45.76 70.98 45.792 70.868 45.792C70.748 45.792 70.64 45.756 70.544 45.684C70.184 45.42 69.732 45.152 69.188 44.88ZM69.188 46.32C69.132 46.296 69.104 46.256 69.104 46.2C69.104 46.152 69.124 46.112 69.164 46.08C69.204 46.048 69.256 46.032 69.32 46.032C69.592 46.04 69.952 46.104 70.4 46.224C70.848 46.344 71.116 46.48 71.204 46.632C71.26 46.72 71.288 46.804 71.288 46.884C71.288 46.988 71.244 47.072 71.156 47.136C71.076 47.2 70.98 47.232 70.868 47.232C70.748 47.232 70.64 47.196 70.544 47.124C70.184 46.86 69.732 46.592 69.188 46.32ZM74.948 49.548C74.868 49.5 74.828 49.44 74.828 49.368C74.828 49.328 74.844 49.296 74.876 49.272C74.908 49.24 74.948 49.224 74.996 49.224L75.104 49.248C75.456 49.376 75.832 49.592 76.232 49.896C76.64 50.2 76.936 50.548 77.12 50.94C77.168 51.052 77.192 51.152 77.192 51.24C77.192 51.376 77.148 51.484 77.06 51.564C76.972 51.652 76.868 51.696 76.748 51.696C76.66 51.696 76.576 51.668 76.496 51.612C76.416 51.556 76.352 51.476 76.304 51.372C75.88 50.452 75.428 49.844 74.948 49.548ZM70.532 49.512C70.516 49.48 70.508 49.448 70.508 49.416C70.508 49.368 70.524 49.328 70.556 49.296C70.588 49.264 70.628 49.248 70.676 49.248C70.732 49.248 70.78 49.264 70.82 49.296C71.14 49.528 71.416 49.824 71.648 50.184C71.88 50.544 72.016 50.876 72.056 51.18C72.08 51.38 72.032 51.544 71.912 51.672C71.8 51.8 71.672 51.864 71.528 51.864C71.456 51.864 71.388 51.84 71.324 51.792C71.268 51.744 71.232 51.672 71.216 51.576C71.112 50.832 70.884 50.144 70.532 49.512ZM72.788 49.524C72.756 49.492 72.74 49.452 72.74 49.404C72.74 49.364 72.752 49.332 72.776 49.308C72.808 49.276 72.848 49.26 72.896 49.26C72.936 49.26 72.98 49.272 73.028 49.296C73.324 49.448 73.632 49.696 73.952 50.04C74.272 50.384 74.496 50.744 74.624 51.12C74.648 51.192 74.66 51.256 74.66 51.312C74.66 51.448 74.616 51.56 74.528 51.648C74.44 51.744 74.336 51.792 74.216 51.792C74.128 51.792 74.048 51.76 73.976 51.696C73.904 51.64 73.848 51.552 73.808 51.432C73.544 50.616 73.204 49.98 72.788 49.524ZM67.34 51.048C67.74 50.84 68.092 50.608 68.396 50.352C68.7 50.096 68.976 49.796 69.224 49.452C69.312 49.34 69.392 49.284 69.464 49.284C69.544 49.284 69.584 49.34 69.584 49.452C69.584 49.668 69.472 49.964 69.248 50.34C69.024 50.708 68.752 51.032 68.432 51.312C68.12 51.6 67.824 51.744 67.544 51.744C67.416 51.744 67.312 51.708 67.232 51.636C67.152 51.564 67.112 51.48 67.112 51.384C67.112 51.32 67.132 51.256 67.172 51.192C67.212 51.128 67.268 51.08 67.34 51.048ZM84.452 51.336C85.356 50.616 85.988 49.652 86.348 48.444C86.716 47.236 86.924 45.888 86.972 44.4C86.98 44.264 86.948 44.16 86.876 44.088C86.804 44.016 86.704 43.98 86.576 43.98C86.416 43.98 86.096 44 85.616 44.04C85.536 44.048 85.472 44.028 85.424 43.98C85.384 43.924 85.364 43.864 85.364 43.8C85.364 43.728 85.384 43.668 85.424 43.62C85.472 43.572 85.536 43.552 85.616 43.56L86.564 43.62C86.7 43.628 86.804 43.596 86.876 43.524C86.948 43.444 86.984 43.336 86.984 43.2V42.96C86.968 42.16 86.96 41.64 86.96 41.4C86.96 41.2 87.016 41.052 87.128 40.956C87.248 40.852 87.396 40.8 87.572 40.8C87.716 40.8 87.836 40.828 87.932 40.884C88.028 40.94 88.076 40.996 88.076 41.052C88.076 41.116 88.012 41.152 87.884 41.16C87.836 41.168 87.796 41.196 87.764 41.244C87.74 41.292 87.728 41.344 87.728 41.4V42.612V43.212C87.728 43.348 87.764 43.452 87.836 43.524C87.908 43.596 88.012 43.632 88.148 43.632H88.304C88.376 43.632 88.44 43.62 88.496 43.596C88.552 43.564 88.62 43.52 88.7 43.464C88.836 43.36 88.944 43.308 89.024 43.308C89.112 43.308 89.224 43.348 89.36 43.428C89.504 43.508 89.628 43.6 89.732 43.704C89.836 43.8 89.888 43.88 89.888 43.944C89.888 44 89.876 44.044 89.852 44.076C89.828 44.1 89.792 44.132 89.744 44.172C89.68 44.22 89.628 44.272 89.588 44.328C89.556 44.384 89.54 44.468 89.54 44.58C89.532 45.86 89.512 46.864 89.48 47.592C89.448 48.32 89.368 49 89.24 49.632C89.112 50.264 88.912 50.768 88.64 51.144C88.528 51.304 88.404 51.428 88.268 51.516C88.14 51.604 88.02 51.648 87.908 51.648C87.812 51.648 87.728 51.616 87.656 51.552C87.584 51.496 87.532 51.408 87.5 51.288C87.452 51.136 87.36 51.008 87.224 50.904C87.096 50.792 86.976 50.704 86.864 50.64C86.752 50.576 86.68 50.536 86.648 50.52C86.528 50.456 86.468 50.376 86.468 50.28C86.468 50.232 86.484 50.192 86.516 50.16C86.548 50.12 86.592 50.1 86.648 50.1C86.672 50.1 86.708 50.108 86.756 50.124C86.804 50.14 86.864 50.168 86.936 50.208C87.016 50.248 87.072 50.276 87.104 50.292C87.232 50.364 87.336 50.42 87.416 50.46C87.504 50.492 87.588 50.508 87.668 50.508C87.788 50.508 87.892 50.46 87.98 50.364C88.276 50.02 88.48 49.36 88.592 48.384C88.704 47.408 88.764 46.076 88.772 44.388C88.772 44.252 88.736 44.148 88.664 44.076C88.592 44.004 88.488 43.968 88.352 43.968H88.136C87.864 43.968 87.72 44.108 87.704 44.388C87.664 45.46 87.556 46.424 87.38 47.28C87.212 48.128 86.908 48.928 86.468 49.68C86.036 50.432 85.428 51.088 84.644 51.648C84.564 51.704 84.492 51.732 84.428 51.732C84.388 51.732 84.352 51.72 84.32 51.696C84.296 51.672 84.284 51.64 84.284 51.6C84.284 51.512 84.34 51.424 84.452 51.336ZM82.208 46.38C82.128 46.388 82.064 46.368 82.016 46.32C81.976 46.264 81.956 46.204 81.956 46.14C81.956 46.068 81.976 46.008 82.016 45.96C82.064 45.912 82.128 45.892 82.208 45.9L82.664 45.936C82.84 45.952 82.944 45.96 82.976 45.96C83.104 45.96 83.2 45.924 83.264 45.852C83.336 45.78 83.372 45.676 83.372 45.54V42.66C83.372 42.532 83.34 42.432 83.276 42.36C83.212 42.28 83.12 42.24 83 42.24C82.968 42.24 82.88 42.248 82.736 42.264C82.384 42.296 82.208 42.312 82.208 42.312C82.128 42.32 82.064 42.3 82.016 42.252C81.976 42.196 81.956 42.136 81.956 42.072C81.956 42 81.976 41.94 82.016 41.892C82.064 41.844 82.128 41.824 82.208 41.832L82.844 41.88C83.164 41.896 83.356 41.904 83.42 41.904H83.828C83.988 41.904 84.12 41.872 84.224 41.808C84.336 41.736 84.452 41.64 84.572 41.52C84.748 41.344 84.924 41.256 85.1 41.256C85.3 41.256 85.52 41.384 85.76 41.64C85.848 41.744 85.892 41.844 85.892 41.94C85.892 42.028 85.856 42.1 85.784 42.156C85.712 42.212 85.608 42.24 85.472 42.24L84.56 42.252C84.432 42.252 84.328 42.288 84.248 42.36C84.176 42.432 84.14 42.536 84.14 42.672V45.276C84.14 45.444 84.164 45.58 84.212 45.684C84.26 45.788 84.312 45.816 84.368 45.768C84.424 45.728 84.492 45.668 84.572 45.588C84.748 45.412 84.924 45.324 85.1 45.324C85.3 45.324 85.52 45.452 85.76 45.708C85.848 45.812 85.892 45.912 85.892 46.008C85.892 46.096 85.856 46.168 85.784 46.224C85.712 46.28 85.608 46.308 85.472 46.308L84.56 46.32C84.432 46.32 84.328 46.356 84.248 46.428C84.176 46.5 84.14 46.604 84.14 46.74V48.984C84.14 49.096 84.164 49.188 84.212 49.26C84.26 49.324 84.324 49.356 84.404 49.356C84.484 49.356 84.564 49.328 84.644 49.272C84.884 49.128 85.16 48.94 85.472 48.708C85.528 48.668 85.576 48.648 85.616 48.648C85.656 48.648 85.688 48.664 85.712 48.696C85.744 48.728 85.76 48.764 85.76 48.804C85.76 48.868 85.728 48.932 85.664 48.996C84.744 49.828 83.86 50.468 83.012 50.916C82.9 50.98 82.824 51.032 82.784 51.072C82.752 51.112 82.752 51.16 82.784 51.216C82.8 51.24 82.808 51.272 82.808 51.312C82.808 51.392 82.768 51.432 82.688 51.432C82.672 51.432 82.632 51.424 82.568 51.408C82.4 51.344 82.272 51.256 82.184 51.144C82.096 51.04 82.052 50.928 82.052 50.808C82.052 50.688 82.1 50.576 82.196 50.472C82.292 50.36 82.424 50.276 82.592 50.22C82.76 50.172 82.912 50.12 83.048 50.064C83.264 49.976 83.372 49.816 83.372 49.584V46.728C83.372 46.448 83.284 46.308 83.108 46.308C83.068 46.308 82.944 46.316 82.736 46.332C82.448 46.364 82.272 46.38 82.208 46.38ZM90.224 43.332C90.224 43.244 90.284 43.2 90.404 43.2C90.548 43.2 90.664 43.22 90.752 43.26C90.848 43.3 90.944 43.352 91.04 43.416C91.136 43.48 91.204 43.512 91.244 43.512H91.976C92.048 43.512 92.116 43.496 92.18 43.464C92.252 43.424 92.316 43.38 92.372 43.332C92.42 43.292 92.472 43.256 92.528 43.224C92.584 43.184 92.64 43.164 92.696 43.164C92.824 43.164 92.952 43.204 93.08 43.284C93.216 43.364 93.328 43.456 93.416 43.56C93.512 43.664 93.56 43.748 93.56 43.812C93.56 43.868 93.548 43.912 93.524 43.944C93.5 43.968 93.464 44 93.416 44.04C93.352 44.088 93.3 44.14 93.26 44.196C93.228 44.252 93.212 44.336 93.212 44.448V50.916C93.212 51.068 93.156 51.188 93.044 51.276C92.932 51.364 92.808 51.408 92.672 51.408C92.552 51.408 92.476 51.356 92.444 51.252C92.42 51.156 92.408 50.964 92.408 50.676C92.408 50.532 92.372 50.42 92.3 50.34C92.228 50.252 92.124 50.208 91.988 50.208H91.412C91.276 50.208 91.172 50.24 91.1 50.304C91.028 50.36 90.992 50.444 90.992 50.556C90.992 50.86 90.94 51.076 90.836 51.204C90.732 51.34 90.608 51.408 90.464 51.408C90.304 51.408 90.224 51.316 90.224 51.132V43.332ZM90.992 49.452C90.992 49.58 91.028 49.684 91.1 49.764C91.18 49.836 91.284 49.872 91.412 49.872L92.024 49.884C92.16 49.884 92.264 49.848 92.336 49.776C92.408 49.696 92.444 49.592 92.444 49.464V44.256C92.444 44.12 92.408 44.016 92.336 43.944C92.264 43.872 92.16 43.836 92.024 43.836H91.412C91.284 43.836 91.18 43.872 91.1 43.944C91.028 44.016 90.992 44.12 90.992 44.256V49.452ZM106.484 51.42C106.484 51.564 106.428 51.68 106.316 51.768C106.212 51.864 106.1 51.912 105.98 51.912C105.9 51.912 105.832 51.884 105.776 51.828C105.728 51.78 105.708 51.708 105.716 51.612V41.352C105.716 41.152 105.772 41.004 105.884 40.908C106.004 40.804 106.152 40.752 106.328 40.752C106.472 40.752 106.592 40.78 106.688 40.836C106.784 40.892 106.832 40.948 106.832 41.004C106.832 41.068 106.768 41.104 106.64 41.112C106.592 41.12 106.552 41.148 106.52 41.196C106.496 41.244 106.484 41.296 106.484 41.352V42.828C106.484 42.956 106.52 43.06 106.592 43.14C106.672 43.212 106.776 43.248 106.904 43.248H107.168C107.328 43.248 107.46 43.216 107.564 43.152C107.676 43.08 107.792 42.984 107.912 42.864C108.088 42.688 108.268 42.6 108.452 42.6C108.556 42.6 108.66 42.632 108.764 42.696C108.884 42.776 108.996 42.872 109.1 42.984C109.188 43.088 109.232 43.188 109.232 43.284C109.232 43.372 109.196 43.444 109.124 43.5C109.052 43.556 108.948 43.584 108.812 43.584L106.904 43.596C106.768 43.596 106.664 43.632 106.592 43.704C106.52 43.776 106.484 43.876 106.484 44.004V45.36C106.484 45.488 106.52 45.592 106.592 45.672C106.672 45.744 106.776 45.78 106.904 45.78C107.08 45.78 107.22 45.748 107.324 45.684C107.436 45.612 107.552 45.516 107.672 45.396C107.848 45.22 108.028 45.132 108.212 45.132C108.316 45.132 108.42 45.164 108.524 45.228C108.644 45.308 108.756 45.404 108.86 45.516C108.948 45.62 108.992 45.72 108.992 45.816C108.992 45.904 108.956 45.976 108.884 46.032C108.812 46.088 108.708 46.116 108.572 46.116L106.904 46.128C106.624 46.112 106.484 46.248 106.484 46.536V47.796C106.484 47.924 106.52 48.028 106.592 48.108C106.672 48.18 106.776 48.216 106.904 48.216H107.168C107.328 48.216 107.46 48.184 107.564 48.12C107.676 48.048 107.792 47.952 107.912 47.832C108.088 47.656 108.268 47.568 108.452 47.568C108.556 47.568 108.66 47.6 108.764 47.664C108.884 47.744 108.996 47.84 109.1 47.952C109.188 48.056 109.232 48.156 109.232 48.252C109.232 48.34 109.196 48.412 109.124 48.468C109.052 48.524 108.948 48.552 108.812 48.552L106.904 48.564C106.768 48.564 106.664 48.6 106.592 48.672C106.52 48.744 106.484 48.844 106.484 48.972V51.42ZM101.972 49.992C101.852 49.952 101.752 49.88 101.672 49.776C101.592 49.664 101.552 49.548 101.552 49.428C101.552 49.196 101.704 49.032 102.008 48.936C102.632 48.744 103.136 48.568 103.52 48.408C103.624 48.36 103.704 48.3 103.76 48.228C103.816 48.156 103.852 48.064 103.868 47.952C103.908 47.624 103.952 47.16 104 46.56C104.016 46.272 103.876 46.128 103.58 46.128C103.276 46.128 103 46.136 102.752 46.152C102.512 46.168 102.352 46.18 102.272 46.188C102.192 46.196 102.128 46.176 102.08 46.128C102.04 46.072 102.02 46.012 102.02 45.948C102.02 45.876 102.04 45.816 102.08 45.768C102.128 45.72 102.192 45.7 102.272 45.708C102.888 45.748 103.336 45.772 103.616 45.78C103.888 45.78 104.032 45.64 104.048 45.36C104.056 45.072 104.06 44.624 104.06 44.016C104.06 43.744 103.92 43.6 103.64 43.584C103.312 43.584 102.928 43.6 102.488 43.632L102.152 43.656C102.072 43.664 102.008 43.644 101.96 43.596C101.92 43.54 101.9 43.48 101.9 43.416C101.9 43.344 101.92 43.284 101.96 43.236C102.008 43.188 102.072 43.168 102.152 43.176L102.416 43.188C103.072 43.228 103.48 43.248 103.64 43.248C103.776 43.248 103.88 43.212 103.952 43.14C104.024 43.06 104.06 42.956 104.06 42.828V41.448C104.06 41.256 104.12 41.112 104.24 41.016C104.368 40.912 104.52 40.86 104.696 40.86C104.904 40.86 105.064 40.928 105.176 41.064C105.2 41.088 105.212 41.116 105.212 41.148C105.212 41.22 105.18 41.256 105.116 41.256C105.028 41.256 104.96 41.272 104.912 41.304C104.872 41.328 104.852 41.396 104.852 41.508L104.864 43.992C104.864 45.352 104.82 46.428 104.732 47.22L104.72 47.364C104.72 47.5 104.74 47.596 104.78 47.652C104.82 47.708 104.876 47.716 104.948 47.676L105.236 47.496C105.276 47.464 105.32 47.448 105.368 47.448C105.432 47.448 105.464 47.484 105.464 47.556C105.464 47.628 105.424 47.7 105.344 47.772L104.78 48.204C104.644 48.3 104.544 48.456 104.48 48.672C104.296 49.368 104.024 49.98 103.664 50.508C103.312 51.036 102.84 51.484 102.248 51.852C102.192 51.892 102.132 51.912 102.068 51.912C102.036 51.912 102.008 51.9 101.984 51.876C101.96 51.86 101.948 51.836 101.948 51.804C101.948 51.732 101.988 51.668 102.068 51.612C102.756 51.068 103.252 50.308 103.556 49.332C103.564 49.316 103.568 49.292 103.568 49.26C103.568 49.18 103.536 49.14 103.472 49.14C103.44 49.14 103.404 49.152 103.364 49.176C103.124 49.312 102.812 49.464 102.428 49.632C102.388 49.648 102.332 49.672 102.26 49.704C102.196 49.728 102.156 49.752 102.14 49.776C102.124 49.792 102.124 49.816 102.14 49.848C102.148 49.864 102.152 49.888 102.152 49.92C102.152 49.96 102.136 49.988 102.104 50.004C102.072 50.012 102.028 50.008 101.972 49.992ZM97.808 46.32C97.728 46.328 97.664 46.308 97.616 46.26C97.576 46.204 97.556 46.144 97.556 46.08C97.556 46.008 97.576 45.948 97.616 45.9C97.664 45.852 97.728 45.832 97.808 45.84L98.324 45.876C98.484 45.892 98.584 45.9 98.624 45.9C98.888 45.9 99.02 45.76 99.02 45.48V42.792C99.02 42.664 98.988 42.564 98.924 42.492C98.86 42.42 98.768 42.384 98.648 42.384C98.616 42.384 98.512 42.392 98.336 42.408L97.808 42.444C97.728 42.452 97.664 42.432 97.616 42.384C97.576 42.328 97.556 42.268 97.556 42.204C97.556 42.132 97.576 42.072 97.616 42.024C97.664 41.976 97.728 41.956 97.808 41.964L98.444 42.012C98.764 42.028 98.956 42.036 99.02 42.036H99.512C99.672 42.036 99.804 42.004 99.908 41.94C100.02 41.868 100.136 41.772 100.256 41.652C100.432 41.476 100.608 41.388 100.784 41.388C100.984 41.388 101.204 41.516 101.444 41.772C101.532 41.876 101.576 41.976 101.576 42.072C101.576 42.16 101.54 42.232 101.468 42.288C101.396 42.344 101.292 42.372 101.156 42.372L100.208 42.384C100.08 42.384 99.976 42.42 99.896 42.492C99.824 42.564 99.788 42.668 99.788 42.804V45.24C99.788 45.416 99.812 45.552 99.86 45.648C99.916 45.744 99.976 45.768 100.04 45.72C100.096 45.68 100.168 45.616 100.256 45.528C100.432 45.352 100.608 45.264 100.784 45.264C100.984 45.264 101.204 45.392 101.444 45.648C101.532 45.752 101.576 45.852 101.576 45.948C101.576 46.036 101.54 46.108 101.468 46.164C101.396 46.22 101.292 46.248 101.156 46.248L100.208 46.26C100.08 46.26 99.976 46.296 99.896 46.368C99.824 46.44 99.788 46.544 99.788 46.68V49.332C99.788 49.444 99.812 49.536 99.86 49.608C99.908 49.672 99.972 49.704 100.052 49.704C100.116 49.704 100.196 49.676 100.292 49.62C100.492 49.508 100.78 49.316 101.156 49.044C101.212 49.004 101.26 48.984 101.3 48.984C101.34 48.984 101.372 49 101.396 49.032C101.42 49.064 101.432 49.1 101.432 49.14C101.432 49.212 101.404 49.276 101.348 49.332C100.412 50.164 99.5 50.804 98.612 51.252C98.492 51.308 98.416 51.356 98.384 51.396C98.352 51.444 98.352 51.496 98.384 51.552C98.4 51.576 98.408 51.608 98.408 51.648C98.408 51.728 98.368 51.768 98.288 51.768C98.272 51.768 98.232 51.76 98.168 51.744C98 51.68 97.872 51.592 97.784 51.48C97.696 51.376 97.652 51.264 97.652 51.144C97.652 51.016 97.696 50.9 97.784 50.796C97.88 50.692 98.016 50.612 98.192 50.556C98.264 50.532 98.428 50.476 98.684 50.388C98.908 50.316 99.02 50.156 99.02 49.908V46.668C99.02 46.388 98.932 46.248 98.756 46.248C98.7 46.248 98.568 46.256 98.36 46.272C98.024 46.304 97.84 46.32 97.808 46.32ZM119.432 50.808C119.288 50.824 119.176 50.816 119.096 50.784C119.016 50.752 118.976 50.708 118.976 50.652C118.976 50.596 119.012 50.552 119.084 50.52C119.164 50.48 119.272 50.46 119.408 50.46C119.864 50.452 120.304 50.304 120.728 50.016C121.152 49.728 121.504 49.348 121.784 48.876C122.064 48.396 122.232 47.88 122.288 47.328C122.304 47.168 122.312 47.048 122.312 46.968C122.312 46.464 122.212 45.976 122.012 45.504C121.812 45.024 121.504 44.608 121.088 44.256C120.68 43.904 120.18 43.668 119.588 43.548C119.492 43.532 119.42 43.544 119.372 43.584C119.324 43.616 119.3 43.672 119.3 43.752C119.3 43.8 119.312 43.856 119.336 43.92C119.48 44.256 119.552 44.548 119.552 44.796C119.552 44.98 119.52 45.136 119.456 45.264L118.856 46.644C118.368 47.772 117.976 48.628 117.68 49.212C117.392 49.788 117.1 50.176 116.804 50.376C116.644 50.488 116.496 50.544 116.36 50.544C116.208 50.544 116.072 50.492 115.952 50.388C115.832 50.276 115.676 50.1 115.484 49.86C115.444 49.804 115.376 49.72 115.28 49.608C115.016 49.312 114.808 48.956 114.656 48.54C114.504 48.124 114.428 47.696 114.428 47.256C114.428 46.96 114.464 46.676 114.536 46.404C114.72 45.684 115.052 45.08 115.532 44.592C116.02 44.096 116.512 43.736 117.008 43.512C117.6 43.248 118.236 43.116 118.916 43.116C119.324 43.116 119.724 43.168 120.116 43.272C120.508 43.376 120.864 43.524 121.184 43.716C121.808 44.076 122.296 44.54 122.648 45.108C123 45.668 123.176 46.28 123.176 46.944C123.176 47.12 123.164 47.292 123.14 47.46C123.004 48.436 122.616 49.212 121.976 49.788C121.336 50.356 120.488 50.696 119.432 50.808ZM116.612 49.428C116.924 49.236 117.252 48.84 117.596 48.24C117.948 47.64 118.24 46.968 118.472 46.224C118.704 45.472 118.82 44.792 118.82 44.184C118.82 44.088 118.812 43.944 118.796 43.752C118.78 43.664 118.744 43.6 118.688 43.56C118.632 43.512 118.556 43.492 118.46 43.5C117.932 43.58 117.44 43.764 116.984 44.052C116.528 44.34 116.144 44.692 115.832 45.108C115.52 45.524 115.304 45.96 115.184 46.416C115.128 46.616 115.1 46.832 115.1 47.064C115.1 47.464 115.18 47.848 115.34 48.216C115.5 48.584 115.692 48.884 115.916 49.116C116.14 49.348 116.332 49.464 116.492 49.464C116.54 49.464 116.58 49.452 116.612 49.428ZM129.284 51.432C129.86 50.808 130.256 49.852 130.472 48.564C130.688 47.268 130.796 45.884 130.796 44.412C130.796 43.948 130.788 43.528 130.772 43.152C130.756 42.776 130.748 42.544 130.748 42.456L130.736 42.204C130.736 42.116 130.796 42.072 130.916 42.072C131.156 42.072 131.324 42.172 131.42 42.372C131.468 42.468 131.536 42.516 131.624 42.516H134.468C134.604 42.516 134.708 42.48 134.78 42.408C134.852 42.328 134.888 42.224 134.888 42.096V41.412C134.888 41.212 134.944 41.064 135.056 40.968C135.176 40.864 135.324 40.812 135.5 40.812C135.644 40.812 135.764 40.84 135.86 40.896C135.956 40.952 136.004 41.008 136.004 41.064C136.004 41.128 135.94 41.164 135.812 41.172C135.764 41.18 135.724 41.208 135.692 41.256C135.668 41.304 135.656 41.356 135.656 41.412V42.096C135.656 42.224 135.692 42.328 135.764 42.408C135.844 42.48 135.948 42.516 136.076 42.516H138.092C138.252 42.516 138.384 42.484 138.488 42.42C138.6 42.348 138.716 42.252 138.836 42.132C139.012 41.956 139.192 41.868 139.376 41.868C139.48 41.868 139.584 41.9 139.688 41.964C139.808 42.044 139.92 42.14 140.024 42.252C140.112 42.356 140.156 42.456 140.156 42.552C140.156 42.64 140.12 42.712 140.048 42.768C139.976 42.824 139.872 42.852 139.736 42.852H131.924C131.788 42.852 131.684 42.888 131.612 42.96C131.54 43.032 131.504 43.136 131.504 43.272V44.004C131.504 45.164 131.46 46.188 131.372 47.076C131.292 47.964 131.104 48.824 130.808 49.656C130.512 50.488 130.072 51.196 129.488 51.78C129.384 51.868 129.304 51.912 129.248 51.912C129.16 51.912 129.116 51.864 129.116 51.768C129.116 51.664 129.172 51.552 129.284 51.432ZM132.368 47.424C132.368 47.336 132.428 47.292 132.548 47.292C132.692 47.292 132.808 47.312 132.896 47.352C132.992 47.392 133.088 47.444 133.184 47.508C133.28 47.572 133.348 47.604 133.388 47.604H134.408C134.544 47.604 134.648 47.568 134.72 47.496C134.792 47.416 134.828 47.312 134.828 47.184V44.04C134.828 43.84 134.884 43.692 134.996 43.596C135.116 43.492 135.264 43.44 135.44 43.44C135.584 43.44 135.704 43.468 135.8 43.524C135.896 43.58 135.944 43.636 135.944 43.692C135.944 43.756 135.88 43.792 135.752 43.8C135.704 43.808 135.664 43.836 135.632 43.884C135.608 43.932 135.596 43.984 135.596 44.04V45.012C135.596 45.14 135.632 45.244 135.704 45.324C135.784 45.396 135.888 45.432 136.016 45.432H137.444C137.604 45.432 137.736 45.4 137.84 45.336C137.952 45.264 138.068 45.168 138.188 45.048C138.364 44.872 138.544 44.784 138.728 44.784C138.832 44.784 138.936 44.816 139.04 44.88C139.16 44.96 139.272 45.056 139.376 45.168C139.464 45.272 139.508 45.372 139.508 45.468C139.508 45.556 139.472 45.628 139.4 45.684C139.328 45.74 139.224 45.768 139.088 45.768L137.444 45.78L136.016 45.768C135.888 45.768 135.784 45.804 135.704 45.876C135.632 45.948 135.596 46.052 135.596 46.188V47.184C135.596 47.312 135.632 47.416 135.704 47.496C135.784 47.568 135.888 47.604 136.016 47.604H137.288C137.36 47.604 137.428 47.588 137.492 47.556C137.564 47.516 137.628 47.472 137.684 47.424C137.732 47.384 137.784 47.348 137.84 47.316C137.896 47.276 137.952 47.256 138.008 47.256C138.136 47.256 138.264 47.296 138.392 47.376C138.528 47.456 138.64 47.548 138.728 47.652C138.824 47.756 138.872 47.84 138.872 47.904C138.872 47.96 138.86 48.004 138.836 48.036C138.812 48.06 138.776 48.092 138.728 48.132C138.664 48.18 138.612 48.232 138.572 48.288C138.54 48.344 138.524 48.428 138.524 48.54V51.432C138.524 51.584 138.468 51.704 138.356 51.792C138.244 51.88 138.12 51.924 137.984 51.924C137.872 51.924 137.8 51.888 137.768 51.816C137.736 51.752 137.72 51.664 137.72 51.552C137.72 51.408 137.684 51.292 137.612 51.204C137.54 51.124 137.436 51.084 137.3 51.084H133.556C133.42 51.084 133.316 51.112 133.244 51.168C133.172 51.232 133.136 51.32 133.136 51.432C133.136 51.576 133.08 51.692 132.968 51.78C132.856 51.876 132.736 51.924 132.608 51.924C132.448 51.924 132.368 51.832 132.368 51.648V47.424ZM133.136 50.328C133.136 50.456 133.172 50.56 133.244 50.64C133.324 50.712 133.428 50.748 133.556 50.748L137.336 50.76C137.472 50.76 137.576 50.724 137.648 50.652C137.72 50.572 137.756 50.468 137.756 50.34V48.348C137.756 48.212 137.72 48.108 137.648 48.036C137.576 47.964 137.472 47.928 137.336 47.928H133.556C133.428 47.928 133.324 47.964 133.244 48.036C133.172 48.108 133.136 48.212 133.136 48.348V50.328Z" fill="#655560"/>
<path d="M4.2265 31L10 36.7735L15.7735 31L10 25.2265L4.2265 31ZM155.774 31L150 25.2265L144.227 31L150 36.7735L155.774 31ZM10 32H150V30H10V32Z" fill="#655560"/>
</g>
<defs>
<clipPath id="clip0_15_398">
<rect width="160" height="60" fill="white"/>
</clipPath>
</defs>
</svg>
